<svg width="87" height="46" viewBox="0 0 87 46" fill="none" xmlns="http://www.w3.org/2000/svg">
<path d="M39.6668 27.4602V44.578C39.6668 45.5721 38.4799 46.0706 37.7859 45.3675L32.049 39.5545L32.0277 39.5329V39.5733C28.6024 42.3211 24.2718 43.9602 19.5642 43.9602C14.8566 43.9602 10.5261 42.3211 7.10078 39.5733C3.75884 36.894 1.27672 33.1614 0.143592 28.8693C-0.0435637 28.1587 0.481769 27.4611 1.20723 27.4611H6.92011C7.3741 27.4611 7.78176 27.7437 7.94668 28.1727C9.75709 32.8826 14.2766 36.219 19.5642 36.219C24.8518 36.219 29.3714 32.8817 31.1818 28.1727C31.3467 27.7437 31.7544 27.4611 32.2083 27.4611H39.6668V27.4602Z" fill="black"/>
<path d="M0 1.4223V18.9757C0 19.3868 0.328912 19.7201 0.734725 19.7201H7.71229C8.01897 19.7201 8.29507 19.5277 8.40069 19.2366C10.1509 14.4066 14.7306 10.9622 20.1035 10.9622C25.5625 10.9622 30.2025 14.5183 31.8878 19.4695C31.9387 19.6197 32.0777 19.721 32.2352 19.721H38.9339C39.4111 19.721 39.7585 19.2686 39.6473 18.7992C38.5772 14.3033 36.0358 10.3886 32.5678 7.60887C29.1425 4.86106 24.812 3.22194 20.1044 3.22194C15.4218 3.22194 11.1126 4.84416 7.69654 7.56381C7.67801 7.57883 7.65948 7.59291 7.64095 7.60887V7.4981L1.94197 0.699434C1.27766 -0.0919602 0 0.383064 0 1.4223Z" fill="black"/>
<path d="M86.9987 1.119V18.6724C86.9987 19.0835 86.6698 19.4168 86.264 19.4168H79.2864C78.9798 19.4168 78.7037 19.2244 78.598 18.9333C76.8479 14.1033 72.2681 10.6589 66.8953 10.6589C61.5224 10.6589 56.9427 14.1042 55.1925 18.9333C55.0869 19.2253 54.8108 19.4168 54.5041 19.4168H48.0648C47.5877 19.4168 47.2402 18.9643 47.3514 18.4949C48.4215 13.9991 50.963 10.0844 54.4309 7.30464C57.8562 4.55682 62.1867 2.91771 66.8943 2.91771C71.602 2.91771 75.8861 4.53993 79.3022 7.25958C79.3207 7.2746 79.3393 7.28868 79.3578 7.30464V7.19386L85.0549 0.396139C85.7183 -0.396193 86.9969 0.0797697 86.9969 1.119H86.9987Z" fill="black"/>
<path d="M54.9711 39.3107L48.5856 45.7808C48.1233 46.2492 47.332 45.9178 47.332 45.2541V27.9007C47.332 27.4895 47.6609 27.1562 48.0668 27.1562H55.3037C55.4603 27.1562 55.5993 27.2576 55.6512 27.4078C57.3365 32.359 61.9765 35.9151 67.4355 35.9151C72.8945 35.9151 77.5345 32.359 79.2198 27.4078C79.2708 27.2576 79.4098 27.1562 79.5673 27.1562H86.2659C86.7431 27.1562 87.0905 27.6087 86.9794 28.0781C85.9092 32.574 83.3678 36.4887 79.8999 39.2684C76.4746 42.0162 72.144 43.6554 67.4364 43.6554C62.7288 43.6554 58.4178 42.0228 54.9952 39.2872" fill="black"/>
<path d="M18.0132 18.0593C18.003 18.6095 17.8557 19.0807 18.0188 19.5708C18.3366 20.5274 19.3011 21.0878 20.3304 20.8513C21.2458 20.641 21.8935 19.6797 21.7564 18.7371C21.7508 18.6996 21.7323 18.6555 21.7443 18.6245C21.8082 18.4649 21.5405 18.2687 21.7573 18.1645C21.8555 18.1175 22.0501 18.2123 22.1724 18.2884C23.79 19.2957 24.8426 20.6917 24.8768 22.6734C24.9417 26.3525 21.4775 28.8797 18.0735 27.6058C16.1241 26.8764 15.0493 25.3368 14.8409 23.2611C14.6352 21.2089 15.7451 19.2544 17.4833 18.3682C17.6343 18.2912 17.7779 18.1973 18.0142 18.0593H18.0132Z" fill="#FFF4D2"/>
<path d="M68.9851 18.0593C68.9953 18.6095 69.1426 19.0807 68.9795 19.5708C68.6618 20.5274 67.6973 21.0878 66.6679 20.8513C65.7525 20.641 65.1049 19.6797 65.242 18.7371C65.2476 18.6996 65.2661 18.6555 65.254 18.6245C65.1901 18.4649 65.4579 18.2687 65.2411 18.1645C65.1429 18.1175 64.9483 18.2123 64.826 18.2884C63.2083 19.2957 62.1558 20.6917 62.1215 22.6734C62.0566 26.3525 65.5209 28.8797 68.9249 27.6058C70.8743 26.8764 71.949 25.3368 72.1575 23.2611C72.3632 21.2089 71.2532 19.2544 69.5151 18.3682C69.364 18.2912 69.2204 18.1973 68.9842 18.0593H68.9851Z" fill="#FFF4D2"/>
</svg>
