<svg width="15" height="15" viewBox="0 0 15 15" fill="none" xmlns="http://www.w3.org/2000/svg">
<g id="Group 23175">
<path id="Vector" d="M7.45801 15C5.57325 14.9654 3.92615 14.3414 2.53194 13.0988C1.08963 11.814 0.234679 10.2002 0.0427997 8.27554C-0.193675 5.90875 0.55213 3.85746 2.22153 2.17561C3.57584 0.811014 5.24993 0.0715401 7.17577 0.00527483C9.28702 -0.0674411 11.1489 0.611045 12.6851 2.07885C14.0676 3.40005 14.8451 5.02795 14.9783 6.93791C15.1296 9.11177 14.4654 11.0241 12.9738 12.6133C11.4851 14.1995 9.61914 14.9695 7.45684 15H7.45801ZM6.88941 5.751C6.88941 6.41483 6.89587 7.07866 6.88589 7.7419C6.88237 7.96825 6.96041 8.13949 7.11709 8.29547C8.1246 9.29708 9.12976 10.301 10.132 11.3085C10.2869 11.4645 10.4471 11.5501 10.6783 11.5425C10.8625 11.5366 11.1448 11.332 11.2046 11.1754C11.3161 10.8828 11.2334 10.6447 11.0245 10.4353C10.1995 9.61022 9.38795 8.77106 8.54121 7.96825C8.23257 7.67622 8.10758 7.38477 8.12049 6.95903C8.15276 5.90113 8.13047 4.84147 8.13164 3.7824C8.13164 3.5361 8.03423 3.34493 7.82416 3.21768C7.40168 2.96082 6.87357 3.26342 6.88531 3.75953C6.90174 4.42277 6.88941 5.08718 6.88941 5.75042V5.751Z" fill="#D3D3D3"/>
<path id="Vector_2" d="M6.88909 5.7508C6.88909 5.08697 6.90141 4.42314 6.88498 3.75991C6.87265 3.26321 7.40076 2.9612 7.82383 3.21805C8.03332 3.34531 8.13131 3.53707 8.13131 3.78278C8.13014 4.84185 8.15243 5.90151 8.12016 6.9594C8.10725 7.38514 8.23224 7.67659 8.54089 7.96863C9.38762 8.77085 10.1997 9.61002 11.0242 10.4357C11.2331 10.645 11.3158 10.8831 11.2043 11.1758C11.1445 11.3329 10.8628 11.537 10.678 11.5429C10.4462 11.5505 10.2866 11.4649 10.1317 11.3089C9.13002 10.3014 8.12427 9.29746 7.11676 8.29585C6.96009 8.13987 6.88204 7.96863 6.88556 7.74227C6.89495 7.07845 6.88909 6.41462 6.88909 5.75138V5.7508Z" fill="#F6F9FA"/>
</g>
</svg>
