<svg width="27" height="26" viewBox="0 0 27 26" fill="none" xmlns="http://www.w3.org/2000/svg">
<circle cx="13.7533" cy="12.8353" r="11.8353" fill="white" stroke="#43A299" stroke-width="2"/>
<path d="M12.3482 12.815C11.1826 13.9799 10.0663 15.1007 8.94318 16.2144C8.66328 16.4919 8.6183 16.8176 8.72001 17.1669C8.82476 17.5265 9.08146 17.7107 9.45558 17.7989C9.84317 17.8902 10.1065 17.7225 10.3467 17.4847C11.397 16.4447 12.4413 15.3987 13.4802 14.3473C13.6183 14.2075 13.6926 14.2079 13.8306 14.3474C14.8803 15.409 15.9393 16.4613 16.9936 17.5184C17.3517 17.8774 17.9037 17.9647 18.3123 17.5777C18.6418 17.2657 18.7698 16.8168 18.4416 16.3352C18.3882 16.257 18.3287 16.1811 18.2619 16.1141C17.229 15.0777 16.1946 14.0427 15.1597 13.0082C15.1081 12.9566 15.0495 12.912 14.9399 12.8173C15.0374 12.7512 15.114 12.7151 15.1705 12.6588C16.2067 11.6256 17.2428 10.5924 18.2733 9.55362C18.5554 9.2694 18.7131 8.93775 18.5778 8.52237C18.4728 8.20005 18.1878 7.89465 17.7621 7.8835C17.4113 7.87428 17.1536 7.99033 16.9105 8.23755C15.8898 9.27558 14.853 10.2977 13.8299 11.3334C13.6906 11.4744 13.6163 11.4698 13.4795 11.3316C12.4403 10.2805 11.3932 9.23717 10.3477 8.19235C9.91439 7.75944 9.33057 7.75781 8.9061 8.18566C8.58416 8.51011 8.59044 9.10905 8.91877 9.43746C10.0109 10.5302 11.1026 11.6234 12.1958 12.715C12.2318 12.751 12.2824 12.7726 12.3482 12.815Z" fill="#00544F"/>
</svg>
