<svg width="318" height="416" viewBox="0 0 318 416" fill="none" xmlns="http://www.w3.org/2000/svg">
<g filter="url(#filter0_i_1432_3693)">
<rect y="366.08" width="48.96" height="49.92" rx="12" fill="white"/>
</g>
<rect x="0.5" y="366.58" width="47.96" height="48.92" rx="11.5" stroke="#E0F1F1"/>
<path d="M16.7568 395.545C16.7568 397.298 15.3413 398.715 13.5898 398.715C11.8384 398.715 10.4229 397.298 10.4229 395.545C10.4229 393.792 11.8384 392.376 13.5898 392.376H16.7568V395.545ZM18.3403 395.545C18.3403 393.792 19.7559 392.376 21.5073 392.376C23.2587 392.376 24.6743 393.792 24.6743 395.545V403.469C24.6743 405.222 23.2587 406.639 21.5073 406.639C19.7559 406.639 18.3403 405.222 18.3403 403.469V395.545Z" fill="#E01E5A"/>
<path d="M21.5088 382.819C19.7574 382.819 18.3418 381.402 18.3418 379.649C18.3418 377.897 19.7574 376.48 21.5088 376.48C23.2603 376.48 24.6758 377.897 24.6758 379.649V382.819H21.5088ZM21.5088 384.428C23.2603 384.428 24.6758 385.844 24.6758 387.597C24.6758 389.35 23.2603 390.767 21.5088 390.767H13.5674C11.8159 390.767 10.4004 389.35 10.4004 387.597C10.4004 385.844 11.8159 384.428 13.5674 384.428H21.5088Z" fill="#36C5F0"/>
<path d="M34.2016 387.597C34.2016 385.844 35.6172 384.428 37.3686 384.428C39.1201 384.428 40.5356 385.844 40.5356 387.597C40.5356 389.35 39.1201 390.767 37.3686 390.767H34.2016V387.597ZM32.6181 387.597C32.6181 389.35 31.2026 390.767 29.4512 390.767C27.6997 390.767 26.2842 389.35 26.2842 387.597V379.649C26.2842 377.897 27.6997 376.48 29.4512 376.48C31.2026 376.48 32.6181 377.897 32.6181 379.649V387.597Z" fill="#2EB67D"/>
<path d="M29.4512 400.299C31.2026 400.299 32.6181 401.716 32.6181 403.469C32.6181 405.222 31.2026 406.639 29.4512 406.639C27.6997 406.639 26.2842 405.222 26.2842 403.469V400.299H29.4512ZM29.4512 398.715C27.6997 398.715 26.2842 397.298 26.2842 395.545C26.2842 393.792 27.6997 392.376 29.4512 392.376H37.3926C39.1441 392.376 40.5596 393.792 40.5596 395.545C40.5596 397.298 39.1441 398.715 37.3926 398.715H29.4512Z" fill="#ECB22E"/>
<g filter="url(#filter1_i_1432_3693)">
<rect y="288.08" width="48.96" height="49.92" rx="12" fill="white"/>
</g>
<rect x="0.5" y="288.58" width="47.96" height="48.92" rx="11.5" stroke="#E0F1F1"/>
<path d="M27.9023 299.52V306.54H34.8922L27.9023 299.52Z" fill="#EA4335"/>
<path d="M21.5485 299.52H16.4649C15.4101 299.52 14.5586 300.375 14.5586 301.435V320.58H21.5485V306.54H27.9029V299.52H21.5485Z" fill="#FFBA00"/>
<path d="M21.5485 320.58H14.5586V325.686C14.5586 326.745 15.4101 327.6 16.4649 327.6H21.5485V320.58Z" fill="#00832D"/>
<path d="M27.9072 320.58H21.5527V327.6H27.9072V320.58Z" fill="#00AC47"/>
<path d="M34.8922 320.58H27.9023V327.6H32.9859C34.0375 327.6 34.8922 326.745 34.8922 325.686V320.58Z" fill="#0066DA"/>
<path d="M27.9023 306.54V320.58H34.8922V306.54H27.9023Z" fill="#2684FC"/>
<path d="M27.9072 306.54H21.5527V320.58H27.9072V306.54Z" fill="white"/>
<g filter="url(#filter2_i_1432_3693)">
<rect y="84.24" width="48.0362" height="49.92" rx="12" fill="white"/>
</g>
<rect x="0.5" y="84.74" width="47.0362" height="48.92" rx="11.5" stroke="#E0F1F1"/>
<path d="M25.7584 100.636L20.3669 109.531L26.1178 118.966C26.1538 119.038 26.1717 119.11 26.1538 119.182C26.1358 119.254 26.0639 119.2 25.9561 119.218H21.8406C21.5531 119.218 21.3554 119.2 21.2296 119.02C20.8522 118.266 20.4568 117.529 20.0794 116.774C19.702 116.037 19.2886 115.282 18.8573 114.51C18.426 113.737 17.9947 112.964 17.5634 112.173H17.5274C17.15 112.946 16.7367 113.719 16.3233 114.492C15.91 115.264 15.4967 116.037 15.1013 116.792C14.6879 117.547 14.2746 118.319 13.8613 119.056C13.7894 119.236 13.6456 119.254 13.4479 119.254H9.49418C9.42229 119.254 9.36838 119.29 9.36838 119.2C9.35041 119.128 9.36838 119.056 9.40432 119.002L14.9935 109.837L9.54809 100.618C9.49418 100.546 9.47621 100.474 9.51215 100.438C9.54809 100.384 9.61998 100.366 9.69187 100.366H13.7714C13.8613 100.366 13.9511 100.384 14.023 100.402C14.0949 100.438 14.1488 100.492 14.2027 100.564C14.5442 101.336 14.9395 102.109 15.3529 102.882C15.7842 103.655 16.1975 104.41 16.6468 105.164C17.0782 105.919 17.4735 106.674 17.8509 107.447H17.8869C18.2643 106.656 18.6596 105.883 19.055 105.128C19.4504 104.374 19.8637 103.619 20.2771 102.864C20.6904 102.109 21.0858 101.336 21.4812 100.6C21.4991 100.528 21.5351 100.456 21.589 100.42C21.6609 100.384 21.7328 100.366 21.8226 100.384H25.6146C25.7045 100.366 25.7943 100.42 25.8123 100.51C25.8303 100.528 25.7943 100.6 25.7584 100.636Z" fill="#FF61F6"/>
<path d="M34.0618 119.596C32.7319 119.614 31.402 119.344 30.1979 118.787C29.0657 118.266 28.1312 117.403 27.4842 116.343C26.8193 115.247 26.4958 113.881 26.4958 112.245C26.4778 110.915 26.8193 109.603 27.4842 108.453C28.1671 107.285 29.1556 106.315 30.3417 105.668C31.5997 104.967 33.1093 104.625 34.8885 104.625C34.9783 104.625 35.1041 104.625 35.2659 104.643C35.4276 104.661 35.6073 104.661 35.823 104.679V99.0003C35.823 98.8745 35.8769 98.8026 36.0027 98.8026H39.6509C39.7408 98.7846 39.8127 98.8565 39.8306 98.9284V116.073C39.8306 116.397 39.8486 116.756 39.8666 117.151C39.9025 117.529 39.9205 117.888 39.9385 118.194C39.9385 118.32 39.8846 118.427 39.7588 118.481C38.8242 118.877 37.8358 119.164 36.8294 119.344C35.9129 119.506 34.9963 119.596 34.0618 119.596ZM35.823 116.001V108.094C35.6613 108.058 35.4995 108.022 35.3378 108.004C35.1401 107.986 34.9424 107.968 34.7447 107.968C34.0438 107.968 33.3429 108.112 32.7139 108.435C32.1029 108.741 31.5817 109.19 31.1864 109.765C30.791 110.34 30.5933 111.113 30.5933 112.048C30.5753 112.677 30.6832 113.306 30.8988 113.899C31.0785 114.384 31.3481 114.815 31.7075 115.175C32.049 115.498 32.4623 115.75 32.9296 115.893C33.4148 116.055 33.918 116.127 34.4212 116.127C34.6908 116.127 34.9424 116.109 35.176 116.091C35.4097 116.109 35.6073 116.073 35.823 116.001Z" fill="#FF61F6"/>
<g filter="url(#filter3_i_1432_3693)">
<rect width="48.96" height="49.92" rx="12" fill="white"/>
</g>
<rect x="0.5" y="0.5" width="47.96" height="48.92" rx="11.5" stroke="#E0F1F1"/>
<path d="M10.4004 34.7019V14.8874C10.4004 14.7526 10.4582 14.6756 10.593 14.6756C10.9203 14.6756 11.2284 14.6756 11.6713 14.6563C12.1334 14.6371 12.6148 14.6371 13.1348 14.6178C13.6547 14.5986 14.2131 14.5986 14.81 14.5793C15.407 14.5601 15.9846 14.5601 16.5623 14.5601C18.1413 14.5601 19.4507 14.7526 20.5291 15.157C21.4919 15.4843 22.3777 16.0235 23.1094 16.736C23.7256 17.3522 24.207 18.1032 24.5151 18.9312C24.8039 19.7399 24.958 20.5679 24.958 21.4345C24.958 23.0905 24.5729 24.4577 23.8026 25.536C23.0324 26.6144 21.954 27.4231 20.7024 27.8853C19.393 28.3667 17.9488 28.54 16.3698 28.54C15.9076 28.54 15.5995 28.54 15.407 28.5207C15.2144 28.5014 14.9448 28.5014 14.579 28.5014V34.6826C14.5982 34.8174 14.5019 34.933 14.3671 34.9522H10.6315C10.4774 34.9522 10.4004 34.8752 10.4004 34.7019ZM14.5982 18.392V24.8621C14.8678 24.8813 15.1181 24.9006 15.3492 24.9006H16.3698C17.1208 24.9006 17.8717 24.785 18.5842 24.554C19.2004 24.3807 19.7396 24.0148 20.1632 23.5334C20.5676 23.052 20.7602 22.3973 20.7602 21.55C20.7794 20.9531 20.6254 20.3561 20.3173 19.8362C19.9899 19.3356 19.5278 18.9504 18.9693 18.7386C18.2569 18.4498 17.4866 18.3342 16.6971 18.3535C16.1965 18.3535 15.7536 18.3535 15.3877 18.3728C15.0026 18.3535 14.733 18.3728 14.5982 18.392Z" fill="#31A8FF"/>
<path d="M36.9725 23.6876C36.3948 23.3795 35.7786 23.1676 35.1239 23.0329C34.4114 22.8788 33.699 22.7825 32.9672 22.7825C32.5821 22.7633 32.1777 22.821 31.8119 22.9173C31.5615 22.9751 31.3497 23.1099 31.2149 23.3024C31.1186 23.4565 31.0609 23.6491 31.0609 23.8224C31.0609 23.9957 31.1379 24.169 31.2534 24.323C31.4267 24.5348 31.6578 24.7081 31.9081 24.8429C32.351 25.074 32.8132 25.2858 33.2753 25.4784C34.3152 25.825 35.3165 26.3064 36.2408 26.8841C36.8762 27.2884 37.3961 27.8276 37.762 28.4823C38.0701 29.0985 38.2241 29.7725 38.2049 30.4657C38.2241 31.3707 37.9545 32.2758 37.4539 33.0268C36.9147 33.797 36.1637 34.3939 35.2972 34.7405C34.3537 35.1449 33.1983 35.3567 31.8119 35.3567C30.9261 35.3567 30.0596 35.2797 29.193 35.1064C28.5191 34.9909 27.8451 34.7791 27.2289 34.4902C27.0941 34.4132 26.9978 34.2784 27.0171 34.1244V30.7738C27.0171 30.716 27.0364 30.639 27.0941 30.6005C27.1519 30.562 27.2097 30.5812 27.2674 30.6197C28.0184 31.0626 28.8079 31.3707 29.6552 31.5633C30.3869 31.7559 31.1572 31.8521 31.9274 31.8521C32.6976 31.8521 33.179 31.7559 33.5257 31.5825C33.8337 31.4478 34.0456 31.1204 34.0456 30.7738C34.0456 30.5042 33.8915 30.2539 33.5834 30.0036C33.2753 29.7532 32.6399 29.4644 31.6963 29.0985C30.7143 28.7519 29.8092 28.2898 28.962 27.7121C28.365 27.2884 27.8644 26.73 27.4985 26.0753C27.1904 25.4591 27.0364 24.7852 27.0556 24.1112C27.0556 23.2832 27.2867 22.4937 27.7103 21.7812C28.1917 21.011 28.9042 20.3948 29.7322 20.0097C30.6372 19.5475 31.7734 19.3357 33.1405 19.3357C33.93 19.3357 34.7388 19.3935 35.5283 19.509C36.106 19.586 36.6644 19.7401 37.1843 19.9519C37.2613 19.9711 37.3384 20.0482 37.3769 20.1252C37.3961 20.2022 37.4154 20.2792 37.4154 20.3563V23.495C37.4154 23.572 37.3769 23.6491 37.3191 23.6876C37.1458 23.7261 37.0495 23.7261 36.9725 23.6876Z" fill="#31A8FF"/>
<g filter="url(#filter4_i_1432_3693)">
<rect y="186.16" width="48.0362" height="49.92" rx="12" fill="white"/>
</g>
<rect x="0.5" y="186.66" width="47.0362" height="48.92" rx="11.5" stroke="#E0F1F1"/>
<g filter="url(#filter5_i_1432_3693)">
<rect x="70.7207" y="186.16" width="48.0362" height="49.92" rx="12" fill="white"/>
</g>
<rect x="71.2207" y="186.66" width="47.0362" height="48.92" rx="11.5" stroke="#E0F1F1"/>
<g filter="url(#filter6_i_1432_3693)">
<rect x="201.76" y="186.16" width="48.0362" height="49.92" rx="12" fill="white"/>
</g>
<rect x="202.26" y="186.66" width="47.0362" height="48.92" rx="11.5" stroke="#E0F1F1"/>
<g filter="url(#filter7_i_1432_3693)">
<rect x="128.96" y="178.88" width="62.4" height="64.48" rx="16" fill="white"/>
</g>
<rect x="129.46" y="179.38" width="61.4" height="63.48" rx="15.5" stroke="#E0F1F1"/>
<path d="M16.9236 198.64C18.3434 198.64 19.5489 199.731 19.5489 201.133C19.5489 202.536 18.3434 203.639 16.9236 203.639V203.691C15.4904 203.691 14.325 202.575 14.325 201.172C14.325 199.77 15.477 198.653 16.9236 198.653V198.64ZM34.4572 222.56C31.8051 222.56 30.5192 221.028 30.5192 218.937C30.5192 218.339 30.5995 217.703 30.7871 217.067L32.0596 212.652C32.2069 212.171 32.2605 211.717 32.2605 211.314C32.2605 209.899 31.363 209.029 29.9432 209.029C28.1349 209.029 26.9428 210.288 26.3266 212.717L23.862 222.3H19.5489L20.3124 219.287C19.0533 221.313 17.2852 222.56 15.1153 222.56C12.5034 222.56 11.2576 221.105 11.2576 218.898C11.2576 218.262 11.338 217.638 11.4854 217.015L13.4544 209.249H10.4004L11.3246 205.951H18.6381L15.7449 217.041C15.5573 217.755 15.477 218.339 15.477 218.742C15.477 219.456 15.8386 219.664 16.4012 219.794C16.7495 219.859 19.482 219.82 20.9822 216.612L22.8708 209.249H19.79L20.7143 206.003H27.358L26.5008 209.743C27.6527 207.665 29.9566 205.665 32.2337 205.665C34.6447 205.665 36.6539 207.353 36.6539 210.548C36.6539 211.47 36.5066 212.392 36.2253 213.275L34.993 217.56C34.8858 218.002 34.8055 218.365 34.8055 218.703C34.8055 219.456 35.1269 219.82 35.6895 219.82C36.2521 219.82 37.0022 219.404 37.8327 217.119L39.5204 217.742C38.5292 221.144 36.7075 222.547 34.4304 222.547L34.4572 222.56Z" fill="black"/>
<g filter="url(#filter8_i_1432_3693)">
<rect x="267.28" y="366.08" width="49.92" height="49.92" rx="12" fill="white"/>
</g>
<rect x="267.78" y="366.58" width="48.92" height="48.92" rx="11.5" stroke="#E0F1F1"/>
<g filter="url(#filter9_i_1432_3693)">
<rect x="267.28" y="288.08" width="49.92" height="49.92" rx="12" fill="white"/>
</g>
<rect x="267.78" y="288.58" width="48.92" height="48.92" rx="11.5" stroke="#E0F1F1"/>
<g filter="url(#filter10_i_1432_3693)">
<rect x="267.28" y="84.24" width="49.1636" height="49.92" rx="12" fill="white"/>
</g>
<rect x="267.78" y="84.74" width="48.1636" height="48.92" rx="11.5" stroke="#E0F1F1"/>
<g filter="url(#filter11_i_1432_3693)">
<rect x="267.28" width="49.92" height="49.92" rx="12" fill="white"/>
</g>
<rect x="267.78" y="0.5" width="48.92" height="48.92" rx="11.5" stroke="#E0F1F1"/>
<path d="M299.546 378.56H295.589L298.885 384.352L291.632 378.56H287.674L291.301 385.643L283.717 378.56H279.76L283.717 387.573L279.76 405.6H283.717L291.301 386.283L287.674 405.6H291.632L298.885 385.003L295.589 405.6H299.546L306.8 383.061L299.546 378.56Z" fill="#050038"/>
<path d="M305.491 301.6H291.506C291.506 304.973 294.337 307.726 297.81 307.726H300.393V310.118C300.393 313.492 303.224 316.245 306.697 316.245V302.773C306.697 302.108 306.167 301.6 305.479 301.6H305.491Z" fill="#2684FF"/>
<path d="M298.578 308.358H284.593C284.593 311.731 287.424 314.484 290.897 314.484H293.48V316.921C293.48 320.295 296.311 323.048 299.784 323.048V309.531C299.784 308.899 299.254 308.358 298.566 308.358H298.578Z" fill="url(#paint0_linear_1432_3693)"/>
<path d="M291.665 315.15H277.681C277.681 318.524 280.511 321.277 283.985 321.277H286.568V323.669C286.568 327.042 289.399 329.795 292.872 329.795V316.324C292.872 315.658 292.308 315.15 291.654 315.15H291.665Z" fill="url(#paint1_linear_1432_3693)"/>
<g filter="url(#filter12_i_1432_3693)">
<rect x="268.32" y="186.16" width="49.1636" height="49.92" rx="12" fill="white"/>
</g>
<rect x="268.82" y="186.66" width="48.1636" height="48.92" rx="11.5" stroke="#E0F1F1"/>
<path fill-rule="evenodd" clip-rule="evenodd" d="M281.021 215.923L279.183 216.596L279.083 222.065L285.443 219.74C283.258 219.008 281.666 217.72 281.015 215.929" fill="#FDBD39"/>
<path fill-rule="evenodd" clip-rule="evenodd" d="M281.978 210.137L275.601 212.468L279.179 216.595L281.017 215.922C280.367 214.136 280.771 212.116 281.978 210.137Z" fill="#F69833"/>
<path fill-rule="evenodd" clip-rule="evenodd" d="M292.714 202.251C284.592 205.22 279.357 211.338 281.02 215.922L310.429 205.179C308.766 200.594 300.837 199.283 292.714 202.251Z" fill="#FECF33"/>
<path fill-rule="evenodd" clip-rule="evenodd" d="M298.729 218.85C306.851 215.881 312.098 209.792 310.423 205.179L281.015 215.922C282.689 220.536 290.607 221.818 298.729 218.85Z" fill="#EE6723"/>
<path fill-rule="evenodd" clip-rule="evenodd" d="M310.423 205.179L281.015 215.922C281.589 217.509 283.785 218.294 286.865 218.294C289.945 218.294 293.716 217.55 297.722 216.086C305.844 213.118 311.554 208.317 310.418 205.185" fill="#F69833"/>
<path fill-rule="evenodd" clip-rule="evenodd" d="M304.572 202.807C301.568 202.807 297.72 203.551 293.715 205.015C285.593 207.983 279.883 212.784 281.019 215.916L310.428 205.179C309.854 203.592 307.658 202.807 304.578 202.807" fill="#FDBD39"/>
<path fill-rule="evenodd" clip-rule="evenodd" d="M302.951 222.351C302.085 222.351 300.808 221.572 299.157 220.026C297.201 218.206 294.964 215.536 292.85 212.509C290.741 209.482 289.002 206.461 287.966 203.99C286.836 201.303 286.672 199.652 287.486 199.078C287.667 198.955 287.878 198.89 288.124 198.89C288.786 198.89 290.074 199.382 292.457 201.73L292.51 201.783V201.853C292.487 202.023 292.469 202.193 292.457 202.356L292.428 202.69L292.194 202.456C289.623 199.868 288.493 199.587 288.13 199.587C288.024 199.587 287.942 199.611 287.884 199.652C287.532 199.897 287.509 201.115 288.604 203.721C289.623 206.145 291.333 209.125 293.418 212.111C295.502 215.097 297.71 217.731 299.625 219.517C301.692 221.449 302.629 221.654 302.934 221.654C303.039 221.654 303.127 221.631 303.185 221.584C303.554 221.32 303.56 220.021 302.336 217.216L302.278 217.087L302.401 217.017C302.524 216.947 302.641 216.882 302.752 216.818L302.899 216.736L302.969 216.888C303.835 218.879 304.649 221.402 303.584 222.152C303.402 222.281 303.191 222.339 302.94 222.339L302.951 222.351Z" fill="#EE6723"/>
<path fill-rule="evenodd" clip-rule="evenodd" d="M298.928 218.768L298.917 218.92C298.712 221.461 298.167 224.511 296.762 224.64C296.732 224.64 296.703 224.64 296.674 224.64C295.713 224.64 294.812 223.27 293.98 220.565C293.195 218.006 292.586 214.57 292.264 210.887C291.942 207.21 291.948 203.715 292.276 201.062C292.639 198.164 293.324 196.654 294.314 196.56C294.343 196.56 294.372 196.56 294.402 196.56C295.099 196.56 296.141 197.345 297.213 201.01L296.516 201.144C296.159 199.921 295.766 198.925 295.38 198.24C295.022 197.608 294.671 197.263 294.402 197.263C294.39 197.263 294.384 197.263 294.372 197.263C293.945 197.298 293.318 198.34 292.973 201.15C292.651 203.762 292.645 207.198 292.961 210.828C293.277 214.458 293.875 217.848 294.648 220.36C294.993 221.484 295.374 222.415 295.743 223.042C296.082 223.621 296.416 223.943 296.674 223.943C296.68 223.943 296.691 223.943 296.703 223.943C297.113 223.908 297.886 222.825 298.214 219.014L298.934 218.768H298.928Z" fill="#EE6723"/>
<path d="M282.791 95.6222L292.079 94.6399L301.367 95.6222L308.557 105.274L292.079 124.463L275.601 105.274L282.791 95.6222Z" fill="#FDB300"/>
<path d="M282.275 105.274L292.079 124.463L275.601 105.274H282.275Z" fill="#EA6C00"/>
<path d="M301.882 105.274L292.078 124.463L308.557 105.274H301.882Z" fill="#EA6C00"/>
<path d="M282.276 105.274H301.884L292.08 124.463L282.276 105.274Z" fill="#FDAD00"/>
<path d="M292.08 94.6399L282.793 95.6222L282.276 105.274L292.08 94.6399Z" fill="#FDD231"/>
<path d="M292.078 94.6399L301.366 95.6222L301.882 105.274L292.078 94.6399Z" fill="#FDD231"/>
<path d="M308.557 105.275L301.365 95.6226L301.882 105.275H308.557Z" fill="#FDAD00"/>
<path d="M275.601 105.275L282.791 95.6226L282.275 105.275H275.601Z" fill="#FDAD00"/>
<path d="M292.08 94.6399L282.276 105.274H301.884L292.08 94.6399Z" fill="#FEEEB7"/>
<path d="M288.865 29.7111H281.679L280.211 33.8842C280.172 34.0434 280.018 34.1495 279.844 34.1318H276.212C276 34.1318 275.942 34.0257 276 33.8135L282.22 17.4922C282.278 17.3153 282.336 17.1562 282.413 16.944C282.49 16.5727 282.529 16.1836 282.529 15.7946C282.51 15.7062 282.587 15.6178 282.683 15.6001H287.687C287.822 15.6001 287.919 15.6531 287.938 15.7416L294.989 33.7781C295.047 33.9726 294.989 34.061 294.795 34.061H290.758C290.623 34.0787 290.488 33.9903 290.449 33.8665L288.865 29.6226V29.7111ZM282.799 26.1922H287.706C287.59 25.8208 287.436 25.3787 287.262 24.919C287.088 24.4415 286.914 23.9287 286.74 23.3983C286.547 22.8501 286.373 22.3196 286.18 21.7714C285.987 21.2233 285.813 20.7105 285.658 20.1977C285.504 19.7025 285.369 19.2428 285.233 18.8184H285.195C285.021 19.5788 284.808 20.3391 284.538 21.0995C284.248 21.9483 283.958 22.8324 283.649 23.7165C283.398 24.6184 283.089 25.4495 282.799 26.1922Z" fill="#4848E8"/>
<path d="M306.365 28.1197H300.242C300.319 28.6679 300.512 29.2161 300.841 29.6935C301.188 30.1709 301.671 30.5423 302.251 30.7545C303.023 31.0551 303.873 31.2142 304.723 31.1965C305.399 31.1789 306.076 31.1258 306.732 31.002C307.331 30.9313 307.911 30.7898 308.452 30.5953C308.548 30.5246 308.606 30.56 308.606 30.7368V33.4423C308.606 33.513 308.587 33.5837 308.567 33.6545C308.529 33.7075 308.49 33.7429 308.432 33.7782C307.814 34.0258 307.177 34.2026 306.501 34.3087C305.593 34.4679 304.685 34.5386 303.757 34.5209C302.289 34.5209 301.053 34.3087 300.049 33.902C299.102 33.5307 298.271 32.9471 297.615 32.2221C296.996 31.5325 296.552 30.7545 296.282 29.9057C296.011 29.0746 295.876 28.2081 295.876 27.324C295.876 26.3691 296.031 25.4319 296.359 24.5124C296.668 23.6283 297.151 22.8148 297.808 22.0898C298.445 21.3825 299.237 20.8167 300.145 20.41C301.053 20.0033 302.135 19.8618 303.371 19.8618C304.395 19.8441 305.419 20.0209 306.365 20.41C307.157 20.7283 307.853 21.2057 308.394 21.8246C308.896 22.4258 309.302 23.0978 309.553 23.8405C309.804 24.5478 309.92 25.2728 309.92 25.9978C309.92 26.4222 309.9 26.7935 309.881 27.1295C309.842 27.4654 309.823 27.713 309.804 27.8722C309.784 27.9959 309.669 28.102 309.533 28.102C309.417 28.102 309.205 28.1197 308.896 28.1374C308.587 28.1728 308.22 28.1904 307.775 28.1904C307.331 28.1904 306.868 28.1197 306.365 28.1197ZM300.242 25.538H304.318C304.82 25.538 305.187 25.538 305.419 25.5203C305.573 25.5026 305.728 25.4673 305.863 25.3789V25.202C305.863 24.9722 305.824 24.76 305.747 24.5478C305.399 23.5575 304.376 22.8856 303.236 22.9209C302.173 22.8679 301.169 23.3807 300.667 24.2648C300.435 24.6715 300.3 25.0959 300.242 25.538Z" fill="#4848E8"/>
<path d="M155.084 193.711C153.076 193.704 151.069 193.699 149.061 193.693C148.66 193.693 148.257 193.679 147.856 193.703C147.751 193.709 147.598 193.805 147.559 193.899C147.222 194.693 146.61 195.047 145.567 195.02C145.01 195.006 144.354 194.447 144.134 193.774C143.826 192.822 144.394 191.622 145.649 191.437C145.715 191.427 145.777 191.387 145.84 191.36C145.866 191.36 145.892 191.36 145.918 191.36C145.968 191.386 146.015 191.426 146.068 191.436C146.701 191.543 147.219 191.841 147.48 192.438C147.609 192.733 147.77 192.782 148.053 192.781C151.405 192.773 154.758 192.776 158.111 192.776H158.51C158.51 192.512 158.518 192.281 158.509 192.051C158.494 191.711 158.631 191.494 158.974 191.424C159.909 191.424 160.844 191.424 161.78 191.424C162.472 191.691 162.013 192.332 162.21 192.767H172.982C173.236 192.434 173.413 192.098 173.684 191.879C173.967 191.648 174.342 191.529 174.678 191.36C174.73 191.36 174.781 191.36 174.834 191.36C174.883 191.385 174.932 191.424 174.985 191.434C175.591 191.544 176.101 191.808 176.41 192.364C176.533 192.586 176.605 192.836 176.7 193.073V193.541C176.648 193.622 176.581 193.699 176.548 193.787C176.146 194.859 175.19 195.258 174.185 194.933C173.604 194.745 173.25 194.287 173.086 193.704H165.566C165.668 193.771 165.707 193.801 165.75 193.822C166.557 194.215 167.388 194.565 168.167 195.008C169.585 195.814 170.8 196.883 171.835 198.14C172.873 199.401 173.709 200.794 174.291 202.328C174.809 203.689 175.134 205.099 175.216 206.554C175.267 207.456 175.109 207.312 175.975 207.317C176.25 207.319 176.512 207.31 176.636 207.623C176.634 208.615 176.633 209.606 176.631 210.597C176.484 210.842 176.274 210.917 175.986 210.909C175.197 210.889 174.406 210.903 173.616 210.901C173.148 210.9 173.046 210.804 173.044 210.349C173.04 209.492 173.041 208.636 173.044 207.78C173.045 207.419 173.211 207.256 173.581 207.242C173.71 207.238 173.839 207.242 173.97 207.242C174.085 207.242 174.201 207.242 174.358 207.242C174.233 204.125 173.248 201.334 171.297 198.924C168.322 195.25 164.457 194.048 162.165 193.885C162.165 194.105 162.165 194.323 162.165 194.541C162.165 194.854 161.991 195.029 161.696 195.034C160.803 195.047 159.909 195.036 159.015 195.038C158.674 195.038 158.545 194.821 158.516 194.529C158.495 194.314 158.512 194.094 158.512 193.831C158.067 193.895 157.64 193.897 157.254 194.023C156.164 194.381 155.06 194.718 154.021 195.194C152.436 195.921 151.081 197.001 149.92 198.301C148.269 200.149 147.18 202.302 146.641 204.72C146.493 205.385 146.468 206.077 146.387 206.756C146.377 206.832 146.391 206.918 146.36 206.984C146.227 207.273 146.384 207.322 146.619 207.32C146.801 207.318 146.983 207.334 147.163 207.317C147.531 207.28 147.697 207.498 147.704 207.806C147.726 208.674 147.72 209.544 147.707 210.413C147.703 210.732 147.502 210.898 147.186 210.899C146.293 210.903 145.398 210.913 144.506 210.883C144.375 210.879 144.143 210.678 144.139 210.563C144.107 209.591 144.106 208.619 144.123 207.646C144.127 207.348 144.385 207.261 144.638 207.245C144.895 207.228 145.153 207.241 145.367 207.241C145.98 200.831 148.993 196.194 155.072 193.766C155.116 193.753 155.161 193.741 155.203 193.723C155.208 193.721 155.197 193.682 155.194 193.66C155.158 193.677 155.121 193.693 155.084 193.711H155.084Z" fill="#00544F"/>
<path d="M159.917 204.668C159.917 207.029 159.911 209.391 159.924 211.752C159.925 212.104 159.804 212.311 159.494 212.466C158.872 212.777 158.55 213.351 158.528 213.998C158.493 215.014 159.396 216.099 160.612 215.868C161.534 215.693 162.011 215.16 162.154 214.28C162.262 213.619 161.925 212.883 161.162 212.46C160.94 212.337 160.828 212.179 160.829 211.912C160.835 207.06 160.831 202.207 160.843 197.355C160.843 197.2 160.964 196.959 161.089 196.908C161.353 196.802 161.569 196.946 161.7 197.215C162.092 198.013 162.497 198.806 162.894 199.602C165.328 204.478 167.76 209.356 170.202 214.229C170.312 214.449 170.304 214.605 170.195 214.82C169.15 216.889 168.116 218.963 167.093 221.043C166.986 221.259 166.872 221.329 166.64 221.329C162.444 221.323 158.246 221.32 154.05 221.333C153.786 221.333 153.678 221.24 153.571 221.024C152.572 219.002 151.567 216.984 150.554 214.969C150.396 214.657 150.398 214.386 150.556 214.071C153.297 208.61 156.03 203.144 158.764 197.68C158.825 197.556 158.865 197.421 158.924 197.296C159.053 197.024 159.234 196.798 159.57 196.896C159.857 196.978 159.919 197.23 159.919 197.506C159.918 199.893 159.918 202.28 159.918 204.667L159.917 204.668Z" fill="#00544F"/>
<path d="M160.337 225.85C157.824 225.85 155.311 225.85 152.798 225.85C152.347 225.85 152.23 225.739 152.227 225.279C152.221 224.449 152.221 223.619 152.227 222.789C152.23 222.327 152.33 222.227 152.803 222.227C157.829 222.225 162.855 222.225 167.881 222.227C168.347 222.227 168.514 222.394 168.517 222.853C168.523 223.631 168.522 224.41 168.517 225.188C168.514 225.666 168.319 225.851 167.836 225.851C165.336 225.851 162.836 225.851 160.336 225.851L160.337 225.85Z" fill="#00544F"/>
<path d="M153.607 226.781H167.152C167.152 227.344 167.152 227.91 167.152 228.475C167.152 228.929 167.157 229.383 167.15 229.837C167.145 230.199 166.967 230.374 166.603 230.374C162.432 230.376 158.262 230.374 154.091 230.377C153.831 230.377 153.613 230.327 153.61 230.016C153.603 228.943 153.608 227.87 153.608 226.781H153.607Z" fill="#00544F"/>
<path d="M89.7559 224.448C92.2258 224.448 94.2305 222.443 94.2305 219.973V215.499H89.7559C87.2859 215.499 85.2812 217.503 85.2812 219.973C85.2812 222.443 87.2859 224.448 89.7559 224.448Z" fill="#0ACF83"/>
<path d="M85.2812 211.024C85.2812 208.554 87.2859 206.55 89.7559 206.55H94.2305V215.499H89.7559C87.2859 215.499 85.2812 213.494 85.2812 211.024Z" fill="#A259FF"/>
<path d="M85.2812 202.075C85.2812 199.605 87.2859 197.6 89.7559 197.6H94.2305V206.55H89.7559C87.2859 206.55 85.2812 204.545 85.2812 202.075Z" fill="#F24E1E"/>
<path d="M94.2295 197.6H98.7041C101.174 197.6 103.179 199.605 103.179 202.075C103.179 204.545 101.174 206.55 98.7041 206.55H94.2295V197.6Z" fill="#FF7262"/>
<path d="M103.179 211.024C103.179 213.494 101.174 215.499 98.7041 215.499C96.2341 215.499 94.2295 213.494 94.2295 211.024C94.2295 208.554 96.2341 206.55 98.7041 206.55C101.174 206.55 103.179 208.554 103.179 211.024Z" fill="#1ABCFE"/>
<path d="M225.171 217.207H217.336L215.735 222.159C215.693 222.349 215.524 222.476 215.335 222.455H211.375C211.143 222.455 211.08 222.328 211.143 222.075L217.925 202.539C217.989 202.328 218.052 202.096 218.136 201.843C218.22 201.401 218.262 200.937 218.262 200.473C218.241 200.368 218.326 200.263 218.431 200.242H223.886C224.055 200.242 224.139 200.305 224.16 200.41L231.848 222.117C231.911 222.349 231.848 222.455 231.637 222.455H227.235C227.088 222.476 226.94 222.37 226.898 222.223L225.171 217.207ZM218.557 212.929H223.907C223.781 212.486 223.612 211.959 223.423 211.411C223.233 210.842 223.044 210.231 222.854 209.599C222.644 208.946 222.454 208.313 222.243 207.66C222.033 207.007 221.843 206.395 221.675 205.784C221.506 205.194 221.359 204.646 221.211 204.14H221.169C220.98 205.047 220.748 205.953 220.453 206.859C220.137 207.871 219.821 208.924 219.484 209.978C219.189 211.053 218.873 212.044 218.557 212.929ZM236.545 203.93C235.85 203.951 235.176 203.677 234.67 203.192C234.186 202.665 233.933 201.97 233.954 201.253C233.933 200.537 234.207 199.862 234.713 199.378C235.218 198.893 235.892 198.64 236.587 198.64C237.409 198.64 238.04 198.893 238.504 199.378C238.967 199.883 239.22 200.558 239.199 201.253C239.22 201.97 238.967 202.665 238.462 203.192C237.977 203.698 237.261 203.972 236.545 203.93ZM234.186 222.223V205.995C234.186 205.784 234.27 205.7 234.46 205.7H238.63C238.82 205.7 238.904 205.805 238.904 205.995V222.223C238.904 222.455 238.82 222.56 238.63 222.56H234.502C234.291 222.56 234.186 222.433 234.186 222.223Z" fill="#FF9A00"/>
<defs>
<filter id="filter0_i_1432_3693" x="0" y="366.08" width="55.96" height="53.9199" filterUnits="userSpaceOnUse" color-interpolation-filters="sRGB">
<feFlood flood-opacity="0" result="BackgroundImageFix"/>
<feBlend mode="normal" in="SourceGraphic" in2="BackgroundImageFix" result="shape"/>
<feColorMatrix in="SourceAlpha" type="matrix" values="0 0 0 0 0 0 0 0 0 0 0 0 0 0 0 0 0 0 127 0" result="hardAlpha"/>
<feOffset dx="7" dy="4"/>
<feGaussianBlur stdDeviation="5"/>
<feComposite in2="hardAlpha" operator="arithmetic" k2="-1" k3="1"/>
<feColorMatrix type="matrix" values="0 0 0 0 0.0106944 0 0 0 0 0.233333 0 0 0 0 0.233333 0 0 0 0.1 0"/>
<feBlend mode="normal" in2="shape" result="effect1_innerShadow_1432_3693"/>
</filter>
<filter id="filter1_i_1432_3693" x="0" y="288.08" width="55.96" height="53.9199" filterUnits="userSpaceOnUse" color-interpolation-filters="sRGB">
<feFlood flood-opacity="0" result="BackgroundImageFix"/>
<feBlend mode="normal" in="SourceGraphic" in2="BackgroundImageFix" result="shape"/>
<feColorMatrix in="SourceAlpha" type="matrix" values="0 0 0 0 0 0 0 0 0 0 0 0 0 0 0 0 0 0 127 0" result="hardAlpha"/>
<feOffset dx="7" dy="4"/>
<feGaussianBlur stdDeviation="5"/>
<feComposite in2="hardAlpha" operator="arithmetic" k2="-1" k3="1"/>
<feColorMatrix type="matrix" values="0 0 0 0 0.0106944 0 0 0 0 0.233333 0 0 0 0 0.233333 0 0 0 0.1 0"/>
<feBlend mode="normal" in2="shape" result="effect1_innerShadow_1432_3693"/>
</filter>
<filter id="filter2_i_1432_3693" x="0" y="84.24" width="55.0361" height="53.9199" filterUnits="userSpaceOnUse" color-interpolation-filters="sRGB">
<feFlood flood-opacity="0" result="BackgroundImageFix"/>
<feBlend mode="normal" in="SourceGraphic" in2="BackgroundImageFix" result="shape"/>
<feColorMatrix in="SourceAlpha" type="matrix" values="0 0 0 0 0 0 0 0 0 0 0 0 0 0 0 0 0 0 127 0" result="hardAlpha"/>
<feOffset dx="7" dy="4"/>
<feGaussianBlur stdDeviation="5"/>
<feComposite in2="hardAlpha" operator="arithmetic" k2="-1" k3="1"/>
<feColorMatrix type="matrix" values="0 0 0 0 0.0106944 0 0 0 0 0.233333 0 0 0 0 0.233333 0 0 0 0.1 0"/>
<feBlend mode="normal" in2="shape" result="effect1_innerShadow_1432_3693"/>
</filter>
<filter id="filter3_i_1432_3693" x="0" y="0" width="55.96" height="53.9199" filterUnits="userSpaceOnUse" color-interpolation-filters="sRGB">
<feFlood flood-opacity="0" result="BackgroundImageFix"/>
<feBlend mode="normal" in="SourceGraphic" in2="BackgroundImageFix" result="shape"/>
<feColorMatrix in="SourceAlpha" type="matrix" values="0 0 0 0 0 0 0 0 0 0 0 0 0 0 0 0 0 0 127 0" result="hardAlpha"/>
<feOffset dx="7" dy="4"/>
<feGaussianBlur stdDeviation="5"/>
<feComposite in2="hardAlpha" operator="arithmetic" k2="-1" k3="1"/>
<feColorMatrix type="matrix" values="0 0 0 0 0.0106944 0 0 0 0 0.233333 0 0 0 0 0.233333 0 0 0 0.1 0"/>
<feBlend mode="normal" in2="shape" result="effect1_innerShadow_1432_3693"/>
</filter>
<filter id="filter4_i_1432_3693" x="0" y="186.16" width="55.0361" height="53.9199" filterUnits="userSpaceOnUse" color-interpolation-filters="sRGB">
<feFlood flood-opacity="0" result="BackgroundImageFix"/>
<feBlend mode="normal" in="SourceGraphic" in2="BackgroundImageFix" result="shape"/>
<feColorMatrix in="SourceAlpha" type="matrix" values="0 0 0 0 0 0 0 0 0 0 0 0 0 0 0 0 0 0 127 0" result="hardAlpha"/>
<feOffset dx="7" dy="4"/>
<feGaussianBlur stdDeviation="5"/>
<feComposite in2="hardAlpha" operator="arithmetic" k2="-1" k3="1"/>
<feColorMatrix type="matrix" values="0 0 0 0 0.0106944 0 0 0 0 0.233333 0 0 0 0 0.233333 0 0 0 0.1 0"/>
<feBlend mode="normal" in2="shape" result="effect1_innerShadow_1432_3693"/>
</filter>
<filter id="filter5_i_1432_3693" x="70.7207" y="186.16" width="55.0361" height="53.9199" filterUnits="userSpaceOnUse" color-interpolation-filters="sRGB">
<feFlood flood-opacity="0" result="BackgroundImageFix"/>
<feBlend mode="normal" in="SourceGraphic" in2="BackgroundImageFix" result="shape"/>
<feColorMatrix in="SourceAlpha" type="matrix" values="0 0 0 0 0 0 0 0 0 0 0 0 0 0 0 0 0 0 127 0" result="hardAlpha"/>
<feOffset dx="7" dy="4"/>
<feGaussianBlur stdDeviation="5"/>
<feComposite in2="hardAlpha" operator="arithmetic" k2="-1" k3="1"/>
<feColorMatrix type="matrix" values="0 0 0 0 0.0106944 0 0 0 0 0.233333 0 0 0 0 0.233333 0 0 0 0.1 0"/>
<feBlend mode="normal" in2="shape" result="effect1_innerShadow_1432_3693"/>
</filter>
<filter id="filter6_i_1432_3693" x="201.76" y="186.16" width="55.0361" height="53.9199" filterUnits="userSpaceOnUse" color-interpolation-filters="sRGB">
<feFlood flood-opacity="0" result="BackgroundImageFix"/>
<feBlend mode="normal" in="SourceGraphic" in2="BackgroundImageFix" result="shape"/>
<feColorMatrix in="SourceAlpha" type="matrix" values="0 0 0 0 0 0 0 0 0 0 0 0 0 0 0 0 0 0 127 0" result="hardAlpha"/>
<feOffset dx="7" dy="4"/>
<feGaussianBlur stdDeviation="5"/>
<feComposite in2="hardAlpha" operator="arithmetic" k2="-1" k3="1"/>
<feColorMatrix type="matrix" values="0 0 0 0 0.0106944 0 0 0 0 0.233333 0 0 0 0 0.233333 0 0 0 0.1 0"/>
<feBlend mode="normal" in2="shape" result="effect1_innerShadow_1432_3693"/>
</filter>
<filter id="filter7_i_1432_3693" x="128.96" y="178.88" width="69.4004" height="68.48" filterUnits="userSpaceOnUse" color-interpolation-filters="sRGB">
<feFlood flood-opacity="0" result="BackgroundImageFix"/>
<feBlend mode="normal" in="SourceGraphic" in2="BackgroundImageFix" result="shape"/>
<feColorMatrix in="SourceAlpha" type="matrix" values="0 0 0 0 0 0 0 0 0 0 0 0 0 0 0 0 0 0 127 0" result="hardAlpha"/>
<feOffset dx="7" dy="4"/>
<feGaussianBlur stdDeviation="5"/>
<feComposite in2="hardAlpha" operator="arithmetic" k2="-1" k3="1"/>
<feColorMatrix type="matrix" values="0 0 0 0 0.0106944 0 0 0 0 0.233333 0 0 0 0 0.233333 0 0 0 0.1 0"/>
<feBlend mode="normal" in2="shape" result="effect1_innerShadow_1432_3693"/>
</filter>
<filter id="filter8_i_1432_3693" x="267.28" y="366.08" width="56.9199" height="53.9199" filterUnits="userSpaceOnUse" color-interpolation-filters="sRGB">
<feFlood flood-opacity="0" result="BackgroundImageFix"/>
<feBlend mode="normal" in="SourceGraphic" in2="BackgroundImageFix" result="shape"/>
<feColorMatrix in="SourceAlpha" type="matrix" values="0 0 0 0 0 0 0 0 0 0 0 0 0 0 0 0 0 0 127 0" result="hardAlpha"/>
<feOffset dx="7" dy="4"/>
<feGaussianBlur stdDeviation="5"/>
<feComposite in2="hardAlpha" operator="arithmetic" k2="-1" k3="1"/>
<feColorMatrix type="matrix" values="0 0 0 0 0.0106944 0 0 0 0 0.233333 0 0 0 0 0.233333 0 0 0 0.1 0"/>
<feBlend mode="normal" in2="shape" result="effect1_innerShadow_1432_3693"/>
</filter>
<filter id="filter9_i_1432_3693" x="267.28" y="288.08" width="56.9199" height="53.9199" filterUnits="userSpaceOnUse" color-interpolation-filters="sRGB">
<feFlood flood-opacity="0" result="BackgroundImageFix"/>
<feBlend mode="normal" in="SourceGraphic" in2="BackgroundImageFix" result="shape"/>
<feColorMatrix in="SourceAlpha" type="matrix" values="0 0 0 0 0 0 0 0 0 0 0 0 0 0 0 0 0 0 127 0" result="hardAlpha"/>
<feOffset dx="7" dy="4"/>
<feGaussianBlur stdDeviation="5"/>
<feComposite in2="hardAlpha" operator="arithmetic" k2="-1" k3="1"/>
<feColorMatrix type="matrix" values="0 0 0 0 0.0106944 0 0 0 0 0.233333 0 0 0 0 0.233333 0 0 0 0.1 0"/>
<feBlend mode="normal" in2="shape" result="effect1_innerShadow_1432_3693"/>
</filter>
<filter id="filter10_i_1432_3693" x="267.28" y="84.24" width="56.1641" height="53.9199" filterUnits="userSpaceOnUse" color-interpolation-filters="sRGB">
<feFlood flood-opacity="0" result="BackgroundImageFix"/>
<feBlend mode="normal" in="SourceGraphic" in2="BackgroundImageFix" result="shape"/>
<feColorMatrix in="SourceAlpha" type="matrix" values="0 0 0 0 0 0 0 0 0 0 0 0 0 0 0 0 0 0 127 0" result="hardAlpha"/>
<feOffset dx="7" dy="4"/>
<feGaussianBlur stdDeviation="5"/>
<feComposite in2="hardAlpha" operator="arithmetic" k2="-1" k3="1"/>
<feColorMatrix type="matrix" values="0 0 0 0 0.0106944 0 0 0 0 0.233333 0 0 0 0 0.233333 0 0 0 0.1 0"/>
<feBlend mode="normal" in2="shape" result="effect1_innerShadow_1432_3693"/>
</filter>
<filter id="filter11_i_1432_3693" x="267.28" y="0" width="56.9199" height="53.9199" filterUnits="userSpaceOnUse" color-interpolation-filters="sRGB">
<feFlood flood-opacity="0" result="BackgroundImageFix"/>
<feBlend mode="normal" in="SourceGraphic" in2="BackgroundImageFix" result="shape"/>
<feColorMatrix in="SourceAlpha" type="matrix" values="0 0 0 0 0 0 0 0 0 0 0 0 0 0 0 0 0 0 127 0" result="hardAlpha"/>
<feOffset dx="7" dy="4"/>
<feGaussianBlur stdDeviation="5"/>
<feComposite in2="hardAlpha" operator="arithmetic" k2="-1" k3="1"/>
<feColorMatrix type="matrix" values="0 0 0 0 0.0106944 0 0 0 0 0.233333 0 0 0 0 0.233333 0 0 0 0.1 0"/>
<feBlend mode="normal" in2="shape" result="effect1_innerShadow_1432_3693"/>
</filter>
<filter id="filter12_i_1432_3693" x="268.32" y="186.16" width="56.1641" height="53.9199" filterUnits="userSpaceOnUse" color-interpolation-filters="sRGB">
<feFlood flood-opacity="0" result="BackgroundImageFix"/>
<feBlend mode="normal" in="SourceGraphic" in2="BackgroundImageFix" result="shape"/>
<feColorMatrix in="SourceAlpha" type="matrix" values="0 0 0 0 0 0 0 0 0 0 0 0 0 0 0 0 0 0 127 0" result="hardAlpha"/>
<feOffset dx="7" dy="4"/>
<feGaussianBlur stdDeviation="5"/>
<feComposite in2="hardAlpha" operator="arithmetic" k2="-1" k3="1"/>
<feColorMatrix type="matrix" values="0 0 0 0 0.0106944 0 0 0 0 0.233333 0 0 0 0 0.233333 0 0 0 0.1 0"/>
<feBlend mode="normal" in2="shape" result="effect1_innerShadow_1432_3693"/>
</filter>
<linearGradient id="paint0_linear_1432_3693" x1="299.277" y1="308.177" x2="293.5" y2="314.302" gradientUnits="userSpaceOnUse">
<stop offset="0.18" stop-color="#0052CC"/>
<stop offset="1" stop-color="#2684FF"/>
</linearGradient>
<linearGradient id="paint1_linear_1432_3693" x1="292.759" y1="314.981" x2="286.08" y2="321.68" gradientUnits="userSpaceOnUse">
<stop offset="0.18" stop-color="#0052CC"/>
<stop offset="1" stop-color="#2684FF"/>
</linearGradient>
</defs>
</svg>
