<svg width="30" height="30" viewBox="0 0 30 30" fill="none" xmlns="http://www.w3.org/2000/svg">
<path id="Vector" d="M15.9625 29.9971C6.41342 29.9446 0.437962 22.9963 0.0304592 16.035C-0.239958 11.4229 1.29053 7.43422 4.60877 4.20424C7.54392 1.34797 11.1288 -0.0792343 15.2132 0.00339308C23.5624 0.170526 29.3707 6.55162 29.9416 13.6144C30.2946 17.9936 29.0533 21.879 26.0693 25.1278C23.0929 28.369 19.3371 29.9183 15.9625 29.9971ZM8.08287 25.062C9.56641 26.2038 12.2931 27.1953 14.0809 27.2742C15.4743 27.3362 16.8357 27.1634 18.1841 26.8103C18.5953 26.7033 18.7493 26.5061 18.6911 26.1005C18.5597 25.1878 18.4864 24.262 18.2986 23.3625C17.9644 21.7569 17.555 20.1682 17.1925 18.5683C17.1231 18.2603 16.9785 18.2227 16.7268 18.326C16.3231 18.495 15.9156 18.6509 15.5193 18.8368C12.4959 20.2527 10.0284 22.3297 8.07911 25.0639L8.08287 25.062ZM6.01155 23.2799C8.66314 19.6837 12.0509 17.1561 16.2104 15.6218C15.8799 14.8613 15.5757 14.1684 15.2639 13.451C11.2227 15.1862 7.07631 15.7627 2.71959 15.0003C2.77969 18.249 3.92709 20.9062 6.01155 23.278V23.2799ZM3.14212 12.2341C6.86974 12.9552 10.4509 12.4463 13.9888 11.0229C12.618 8.56472 11.0105 6.33941 9.16453 4.29438C5.79934 6.01266 3.55901 9.60883 3.14212 12.236V12.2341ZM17.7052 12.1891C18.0601 13.0341 18.3869 13.8416 18.7474 14.6341C18.7906 14.728 19.0272 14.7937 19.1625 14.7768C19.9906 14.6754 20.8131 14.4538 21.6394 14.4482C23.1905 14.4388 24.7417 14.5458 26.2928 14.6097C26.5914 14.6228 26.89 14.6641 27.2524 14.6979C27.136 11.56 26.0656 8.88959 23.921 6.55725C22.1784 8.85767 20.1202 10.7187 17.7071 12.1891H17.7052ZM11.9344 3.14136C13.4705 5.33098 14.9973 7.50371 16.539 9.70272C18.569 8.43514 20.3418 6.78635 21.8178 4.75635C18.6967 2.747 15.3841 2.34513 11.9344 3.14323V3.14136ZM21.4685 25.3831C24.3774 23.5278 26.2703 20.9119 27.0214 17.4547C24.5652 17.0115 22.1464 17.0171 19.8404 17.4228C20.3868 20.0931 20.9202 22.7053 21.4685 25.3831Z" fill="#A8A8A8"/>
</svg>
