<svg width="106" height="51" viewBox="0 0 106 51" fill="none" xmlns="http://www.w3.org/2000/svg">
<rect x="16.8555" y="22.2144" width="89.1429" height="28.7857" fill="#FF058C"/>
<path d="M30.308 41L29.566 38.816H25.562L24.82 41H23.098L26.57 31.396H28.558L32.03 41H30.308ZM26.052 37.416H29.076L27.564 32.992L26.052 37.416ZM36.9485 34.07C38.7265 34.07 39.9725 35.33 39.9725 37.472C39.9725 39.586 38.7545 41.07 36.8785 41.07C35.8285 41.07 35.1425 40.622 34.7505 39.978L34.7085 41H33.0565V31.06H34.7645V35.148C35.1845 34.532 35.8985 34.07 36.9485 34.07ZM36.5565 39.628C37.5645 39.628 38.2505 38.788 38.2505 37.528C38.2505 36.296 37.5925 35.512 36.5705 35.512C35.3665 35.512 34.7645 36.52 34.7645 37.36V37.766C34.7645 38.648 35.3805 39.628 36.5565 39.628ZM43.4117 31.914C43.4117 32.558 42.9217 33.006 42.2917 33.006C41.6617 33.006 41.1717 32.558 41.1717 31.914C41.1717 31.298 41.6617 30.836 42.2917 30.836C42.9217 30.836 43.4117 31.298 43.4117 31.914ZM41.4237 41V34.14H43.1317V41H41.4237ZM49.781 31.06H51.489V41H49.837L49.795 39.964C49.389 40.594 48.647 41.07 47.597 41.07C45.819 41.07 44.573 39.782 44.573 37.654C44.573 35.554 45.791 34.07 47.695 34.07C48.731 34.07 49.403 34.49 49.781 35.106V31.06ZM47.975 39.628C49.179 39.628 49.781 38.62 49.781 37.78V37.374C49.781 36.492 49.165 35.512 47.989 35.512C46.981 35.512 46.295 36.352 46.295 37.612C46.295 38.844 46.953 39.628 47.975 39.628ZM60.218 31.396C62.962 31.396 64.852 33.174 64.852 36.198C64.852 39.222 62.962 41 60.218 41H56.564V31.396H60.218ZM60.218 39.572C61.926 39.572 63.13 38.396 63.13 36.198C63.13 34 61.926 32.838 60.218 32.838H58.272V39.558L60.218 39.572ZM72.5632 37.612V37.962H67.6492C67.7752 39.082 68.4332 39.712 69.4132 39.712C70.4352 39.712 70.8132 39.18 70.9252 38.76H72.5352C72.2972 39.964 71.3452 41.07 69.3432 41.07C67.2432 41.07 65.9692 39.614 65.9692 37.584C65.9692 35.512 67.3972 34.07 69.3572 34.07C71.3872 34.07 72.5632 35.47 72.5632 37.612ZM69.3712 35.386C68.5172 35.386 67.8592 35.904 67.6772 36.912H70.9392C70.7992 35.862 70.2252 35.386 69.3712 35.386ZM79.3518 39.082C79.3658 40.314 78.2598 41.07 76.4398 41.07C74.5358 41.07 73.5978 40.286 73.5838 38.9L75.0678 38.914C75.1098 39.502 75.5018 39.824 76.4398 39.824C77.3218 39.824 77.6998 39.558 77.6998 39.124C77.6998 37.738 73.7378 38.816 73.7378 36.072C73.7378 34.84 74.8158 34.07 76.5658 34.07C78.2878 34.07 79.2258 34.854 79.2538 36.212H77.7558C77.7138 35.61 77.2798 35.316 76.5518 35.316C75.7538 35.316 75.3898 35.596 75.3898 36.03C75.3898 37.388 79.3518 36.254 79.3518 39.082ZM82.7867 31.914C82.7867 32.558 82.2967 33.006 81.6667 33.006C81.0367 33.006 80.5467 32.558 80.5467 31.914C80.5467 31.298 81.0367 30.836 81.6667 30.836C82.2967 30.836 82.7867 31.298 82.7867 31.914ZM80.7987 41V34.14H82.5067V41H80.7987ZM89.198 34.14H90.822V41.042C90.822 42.68 89.59 43.954 87.378 43.954C85.516 43.954 84.34 43.226 84.186 41.714H85.81C85.936 42.372 86.454 42.624 87.378 42.624C88.554 42.624 89.128 41.938 89.128 41.098V39.978C88.736 40.622 88.064 41.056 87.014 41.056C85.166 41.056 83.948 39.628 83.948 37.57C83.948 35.4 85.306 34.07 87.056 34.07C88.106 34.07 88.778 34.49 89.142 35.092L89.198 34.14ZM87.35 39.628C88.498 39.628 89.128 38.648 89.128 37.752V37.388C89.128 36.52 88.526 35.512 87.35 35.512C86.356 35.512 85.67 36.324 85.67 37.57C85.67 38.802 86.356 39.628 87.35 39.628ZM96.4885 34.07C98.0145 34.07 98.9105 35.106 98.9105 36.688V41H97.1885V37.08C97.1885 36.114 96.7405 35.54 95.8725 35.54C94.9485 35.54 94.3465 36.17 94.3465 37.108V41H92.6385V34.14H94.2765L94.3325 35.134C94.7385 34.504 95.4525 34.07 96.4885 34.07Z" fill="white"/>
<path d="M5.51338 17.9547L1.18341 1.68899C1.11507 1.43227 1.38951 1.21996 1.62083 1.3506L16.1661 9.56458C16.3973 9.69512 16.3575 10.0394 16.1027 10.1138L9.76998 11.9618C9.69716 11.983 9.6351 12.0311 9.59628 12.0962L6.06102 18.031C5.92513 18.2592 5.58169 18.2113 5.51338 17.9547Z" fill="#008F7C" stroke="white"/>
</svg>
