<svg width="16" height="16" viewBox="0 0 16 16" fill="none" xmlns="http://www.w3.org/2000/svg">
<path d="M14.3333 2.10302C14.298 2.14748 14.266 2.19594 14.2261 2.23585C12.824 3.63878 11.4202 5.04057 10.018 6.4435C9.84755 6.61395 9.65882 6.72169 9.4085 6.67209C8.95519 6.58259 8.76246 6.06041 9.04927 5.69728C9.09033 5.64541 9.13765 5.59809 9.18441 5.55134C10.5768 4.15868 11.9693 2.76601 13.3628 1.37391C13.4028 1.334 13.4507 1.30094 13.4963 1.26331C13.4387 1.20004 13.3834 1.22341 13.336 1.22284C12.4961 1.22113 11.6557 1.22113 10.8158 1.2217C10.5968 1.2217 10.4018 1.16754 10.2621 0.985692C10.1138 0.79187 10.0836 0.579806 10.1863 0.35748C10.2883 0.136295 10.4685 0.0114506 10.712 0.00517985C11.0581 -0.00394119 11.4048 0.00175946 11.7515 0.00175946C12.8097 0.00175946 13.8686 0.00175946 14.9269 0.00175946C15.3528 0.00175946 15.5975 0.245747 15.598 0.671586C15.598 2.06198 15.5986 3.45179 15.598 4.84218C15.598 5.10954 15.4766 5.3085 15.2308 5.41681C14.9953 5.52056 14.7747 5.4761 14.5825 5.30907C14.424 5.17111 14.3784 4.98584 14.3784 4.78347C14.3789 3.94832 14.3784 3.11318 14.3784 2.27803C14.3784 2.22729 14.3784 2.17656 14.3784 2.12582C14.3635 2.11784 14.3487 2.10986 14.3345 2.10188L14.3333 2.10302Z" fill="white"/>
<path d="M1.26357 13.1439C1.29893 13.092 1.33087 13.0355 1.3708 12.9889C2.77328 11.3521 4.17747 9.71665 5.57995 8.07919C5.75049 7.88033 5.93927 7.75462 6.18966 7.81249C6.64308 7.91691 6.83586 8.52613 6.54897 8.9498C6.50791 9.01032 6.46057 9.06552 6.4138 9.12006C5.02102 10.7449 3.62823 12.3697 2.2343 13.9939C2.19438 14.0404 2.14818 14.0803 2.10312 14.1256C2.15845 14.1967 2.21377 14.1701 2.26168 14.1701C3.1018 14.1721 3.94249 14.1721 4.78261 14.1708C5.00219 14.1708 5.19668 14.2346 5.33642 14.4461C5.48528 14.6716 5.51551 14.9197 5.41284 15.1791C5.31075 15.4371 5.13052 15.5815 4.88698 15.5908C4.61208 15.6014 4.3366 15.5941 4.06112 15.5948C2.93126 15.5948 1.80141 15.5948 0.671551 15.5948C0.244932 15.5948 0.000253487 15.3101 0.000253487 14.8139C0.000253487 13.1918 -0.000316859 11.5703 0.000253487 9.9481C0.000253487 9.63617 0.121737 9.40406 0.367557 9.27769C0.60311 9.15664 0.823264 9.20852 1.01604 9.40339C1.17517 9.56434 1.22022 9.7805 1.22022 10.0166C1.21965 10.991 1.22022 11.9653 1.22022 12.9397C1.22022 12.9989 1.22022 13.0581 1.22022 13.1173C1.23505 13.1266 1.24988 13.1359 1.26471 13.1452L1.26357 13.1439Z" fill="white"/>
</svg>
