<svg width="139" height="21" viewBox="0 0 139 21" fill="none" xmlns="http://www.w3.org/2000/svg">
<rect width="139" height="21" fill="#E5E5E5"/>
<g id="Dev Place (Devloper)">
<rect id="Rectangle 2476" x="-8746" y="-3349" width="19213" height="12891" rx="140" fill="white" stroke="black" stroke-width="20"/>
<g id="Production - V.1" clip-path="url(#clip0_0_1)">
<rect width="1280" height="9282" transform="translate(-398 -984)" fill="white"/>
<g id="FULL CONTAINER">
<rect id="MAIN BG" x="-398" y="-985" width="1280" height="2061" fill="#042825"/>
<g id="COMPANY CLIENT">
<g id="COMPANY LOGO">
<g id="Group 23123">
<path id="Vector" d="M73.3002 10.7084C73.2002 9.50842 72.9002 8.30842 71.9002 7.40842C71.0002 6.50842 69.8002 6.20842 68.6002 6.00842C66.9002 5.80842 65.3002 6.00842 63.8002 6.70842C63.6002 6.80842 63.4002 7.00842 63.0002 6.80842C61.3002 5.70842 59.3002 5.60842 57.4002 5.90842C54.7002 6.30842 53.4002 7.90842 53.2002 10.2084C53.0002 13.2084 53.1002 16.3084 53.1002 19.4084C53.1002 19.6084 53.1002 19.7084 53.4002 19.7084C54.5002 19.7084 55.5002 19.7084 56.6002 19.7084L56.7002 19.6084C56.7002 16.6084 56.7002 13.5084 56.7002 10.5084C56.7002 9.60842 57.4002 8.90842 58.3002 8.90842C58.6002 8.90842 58.9002 8.90842 59.2002 8.90842C60.7002 8.90842 61.4002 9.70842 61.4002 11.1084C61.4002 13.8084 61.4002 16.5084 61.4002 19.2084C61.4002 19.7084 61.5002 19.8084 62.0002 19.8084C62.8002 19.8084 63.6002 19.8084 64.4002 19.8084C64.9002 19.8084 65.0002 19.7084 65.0002 19.2084C65.0002 16.4084 65.0002 13.7084 65.0002 10.9084C65.0002 10.0084 65.5002 9.30842 66.2002 9.10842C66.6002 9.00842 67.1002 8.90842 67.6002 9.00842C68.8002 9.10842 69.8002 9.60842 69.8002 11.2084C69.8002 13.5084 69.8002 15.9084 69.8002 18.2084C69.8002 19.2084 70.4002 19.8084 71.5002 19.9084C72.0002 19.9084 72.5002 19.9084 73.1002 19.9084C73.4002 19.9084 73.5002 19.9084 73.5002 19.6084C73.5002 16.7084 73.5002 13.8084 73.5002 10.9084C73.2002 10.9084 73.3002 10.8084 73.3002 10.7084Z" fill="#D3EAE9"/>
<path id="Vector_2" d="M48.1002 7.30838C47.2002 6.70838 46.3002 6.30838 45.1002 6.10838C43.5002 5.80838 41.9002 5.90839 40.3002 6.20839C37.7002 6.80839 36.2002 9.00838 35.9002 11.3084C36.0002 11.4084 36.0002 11.5084 35.9002 11.5084C35.8002 12.5084 35.8002 13.6084 35.9002 14.6084C36.1002 16.0084 36.6002 17.2084 37.7002 18.2084C39.0002 19.4084 40.6002 19.8084 42.3002 19.9084C43.6002 20.0084 44.8002 19.8084 46.0002 19.5084C47.7002 19.0084 48.9002 18.1084 49.6002 16.6084C50.6002 14.5084 50.6002 12.4084 50.0002 10.3084C49.7002 9.10838 49.2002 8.00838 48.1002 7.30838ZM46.2002 12.8084C46.2002 13.9084 46.0002 15.0084 45.3002 16.0084C44.9002 16.5084 44.3002 16.8084 43.7002 16.8084C41.8002 17.0084 40.8002 16.5084 40.2002 14.6084C39.7002 13.0084 39.9002 11.5084 40.7002 10.1084C41.0002 9.50838 41.7002 9.10838 42.4002 9.00838C43.1002 8.90838 43.8002 9.00839 44.5002 9.20839C45.6002 9.60839 45.9002 10.4084 46.2002 11.4084C46.1002 11.8084 46.2002 12.3084 46.2002 12.8084Z" fill="#D3EAE9"/>
<path id="Vector_3" d="M137.6 12.6084C136.6 11.9084 135.3 11.7084 134.1 11.4084C133.2 11.1084 132.2 11.1084 131.4 10.6084C131 10.4084 130.6 10.1084 130.6 9.50841C130.6 9.00841 131.1 8.80841 131.5 8.70841C132.4 8.50841 133.3 8.50841 134.1 8.90841C134.4 9.00841 134.6 9.20841 134.7 9.50841C135 10.1084 135.5 10.4084 136.2 10.4084C136.8 10.4084 137.5 10.4084 138.1 10.4084C138.4 10.4084 138.5 10.3084 138.5 10.0084C138.3 8.80841 137.9 7.80841 136.9 7.10841C135 5.80841 132.9 5.70841 130.8 6.10841C128.9 6.40841 127.5 7.40841 127.1 9.40841C126.9 10.7084 127.1 11.9084 128.2 12.9084C129.2 13.7084 130.4 14.1084 131.6 14.3084C132.6 14.5084 133.6 14.7084 134.6 15.1084C134.9 15.2084 135.3 15.4084 135.3 15.9084C135.3 16.6084 135 16.9084 134.3 17.1084C133.6 17.3084 132.9 17.2084 132.2 17.2084C131.4 17.2084 130.5 16.7084 130.4 16.0084C130.3 15.1084 129.7 15.2084 129.1 15.2084C128.9 15.2084 128.6 15.2084 128.4 15.2084C128.1 15.2084 127.9 15.2084 127.6 15.2084C126.4 15.2084 126.4 15.2084 126.6 16.3084C126.9 18.1084 128.4 19.3084 130 19.7084C131.6 20.1084 133.3 20.0084 135 19.7084C136.2 19.5084 137.3 19.0084 138.1 18.0084C138.8 17.1084 138.9 16.1084 138.9 15.1084C139 14.0084 138.5 13.2084 137.6 12.6084Z" fill="#D3EAE9"/>
<path id="Vector_4" d="M31.7002 12.6084C30.3002 11.8084 28.8002 11.5084 27.3002 11.2084C26.5002 11.0084 25.6002 10.9084 25.0002 10.2084C24.6002 9.70841 24.6002 9.20841 25.3002 8.90841C26.1002 8.50841 26.8002 8.60841 27.6002 8.70841C28.2002 8.80841 28.7002 9.00841 28.9002 9.50841C29.2002 10.1084 29.7002 10.4084 30.4002 10.4084C31.0002 10.4084 31.7002 10.4084 32.3002 10.4084C32.6002 10.4084 32.7002 10.3084 32.7002 10.0084C32.5002 8.80841 32.1002 7.80841 31.1002 7.10841C29.2002 5.80841 27.1002 5.70841 24.9002 6.10841C22.8002 6.50841 21.1002 7.80841 21.2002 10.5084C21.3002 11.6084 21.8002 12.5084 22.7002 13.1084C23.7002 13.8084 25.0002 14.1084 26.2002 14.4084C27.1002 14.6084 28.1002 14.7084 29.0002 15.2084C29.4002 15.5084 29.5002 15.8084 29.4002 16.1084C29.4002 16.5084 29.1002 16.7084 28.7002 16.9084C27.8002 17.3084 26.8002 17.2084 25.9002 17.1084C25.2002 17.0084 24.5002 16.6084 24.4002 16.0084C24.3002 15.1084 23.7002 15.2084 23.1002 15.2084C22.9002 15.2084 22.7002 15.2084 22.5002 15.2084C22.0002 15.2084 21.6002 15.2084 21.1002 15.2084C20.7002 15.2084 20.7002 15.3084 20.7002 15.6084C20.7002 17.4084 22.3002 19.3084 24.2002 19.7084C26.1002 20.1084 28.0002 20.0084 29.9002 19.5084C30.9002 19.2084 31.7002 18.8084 32.4002 18.0084C32.8002 17.4084 33.0002 16.8084 33.1002 16.1084C33.3002 14.8084 33.1002 13.4084 31.7002 12.6084Z" fill="#D3EAE9"/>
<path id="Vector_5" d="M108.8 9.50839C108.7 7.70839 107.7 6.80839 106 6.30839C104.4 5.90839 102.7 5.80839 101 6.10839C98.9003 6.50839 98.1003 7.40839 97.4003 9.30839C97.3003 9.50839 97.4003 9.70839 97.7003 9.70839C98.6003 9.70839 99.6003 9.70839 100.5 9.70839C100.7 9.70839 100.9 9.70839 101 9.50839C101.1 9.20839 101.4 9.10839 101.6 9.00839C102.5 8.60839 103.5 8.70839 104.5 9.00839C105.1 9.20839 105.4 9.60839 105.3 10.1084C105.2 10.7084 104.7 10.9084 104.2 11.1084C103.1 11.4084 102 11.5084 100.9 11.7084C98.2003 12.2084 96.8003 13.8084 97.0003 16.2084C97.1003 17.3084 97.5003 18.3084 98.3003 19.0084C99.3003 19.9084 100.6 20.1084 101.9 20.1084C102.8 20.1084 103.8 20.0084 104.7 19.8084C106.6 19.3084 108.1 18.2084 108.6 16.2084C108.9 14.9084 108.8 13.7084 108.8 12.7084C108.8 11.3084 108.8 10.4084 108.8 9.50839ZM105 15.7084C104.4 16.7084 103.4 17.1084 102.2 17.0084C101.2 17.0084 100.6 16.6084 100.4 15.9084C100.2 15.1084 100.6 14.5084 101.4 14.0084C102.2 13.6084 103.1 13.5084 104 13.2084C104.3 13.1084 104.7 13.0084 105 12.9084C105.1 12.9084 105.4 12.7084 105.4 13.0084C105.4 14.0084 105.4 14.9084 105 15.7084Z" fill="#D3EAE9"/>
<path id="Vector_6" d="M87.9002 10.1084C87.6002 8.40843 86.8002 7.20843 85.2002 6.50843C83.3002 5.70843 81.3002 5.70842 79.4002 6.30842C77.5002 6.90842 76.5002 8.30843 76.3002 10.1084L76.2002 10.2084C76.0002 12.7084 76.1002 15.2084 76.1002 17.6084C76.1002 18.3084 76.1002 19.0084 76.1002 19.6084L76.2002 19.7084C77.1002 19.7084 78.1002 19.7084 79.0002 19.7084C79.5002 19.7084 79.6002 19.6084 79.6002 19.2084C79.6002 16.5084 79.6002 13.8084 79.6002 11.1084C79.6002 9.90843 80.0002 9.20843 80.9002 9.00843C81.6002 8.80843 82.4002 8.80843 83.2002 9.00843C83.6002 9.10843 84.1002 9.40842 84.2002 9.80842C84.4002 10.3084 84.5002 10.8084 84.5002 11.3084C84.5002 13.5084 84.5002 15.8084 84.5002 18.0084C84.5002 19.1084 85.0002 19.5084 86.1002 19.6084C86.6002 19.6084 87.1002 19.6084 87.5002 19.6084C87.9002 19.6084 88.0002 19.5084 88.0002 19.1084C88.0002 18.4084 88.0002 17.8084 88.0002 17.1084C88.0002 15.0084 88.3002 12.5084 87.9002 10.1084Z" fill="#D3EAE9"/>
<path id="Vector_7" d="M17.9998 10.0084C17.7998 8.70842 17.1998 7.70842 16.0998 7.00842C14.4998 5.90842 12.5998 5.90842 10.7998 6.10842C7.8998 6.40842 6.4998 8.40841 6.2998 10.9084C6.4998 11.0084 6.4998 11.1084 6.2998 11.2084C6.2998 14.0084 6.2998 16.8084 6.2998 19.7084C6.2998 20.0084 6.39981 20.0084 6.69981 20.0084C7.59981 20.0084 8.3998 20.0084 9.2998 20.0084C9.7998 20.0084 9.89981 19.9084 9.89981 19.4084C9.89981 17.4084 9.89981 15.4084 9.89981 13.4084C9.89981 12.4084 9.79981 11.4084 9.99981 10.4084C9.99981 10.3084 9.8998 10.2084 10.0998 10.2084C10.1998 9.90842 10.3998 9.60841 10.6998 9.40841C11.4998 8.90841 12.3998 9.00842 13.1998 9.10842C14.2998 9.30842 14.6998 10.0084 14.6998 11.2084C14.6998 13.6084 14.6998 16.0084 14.6998 18.3084C14.6998 19.2084 15.2998 19.8084 16.1998 19.8084C16.7998 19.8084 17.2998 19.8084 17.8998 19.8084C18.1998 19.8084 18.2998 19.7084 18.2998 19.4084C18.0998 16.4084 18.4998 13.2084 17.9998 10.0084Z" fill="#D3EAE9"/>
<path id="Vector_8" d="M123.6 15.5085C122.8 15.5085 122.1 15.5085 121.3 15.5085C120.9 15.5085 120.5 15.6085 120.2 15.9085C119.8 16.3085 119.2 16.6085 118.6 16.8085C117.2 17.2085 116 16.5085 115.5 15.4085C114.9 13.9085 115 12.3085 115.3 10.8085C115.5 9.90846 116.1 9.10846 117 8.90846C118.1 8.70846 119.3 8.80846 119.9 10.0085C120 10.1085 120 10.2085 120.2 10.2085C121.3 10.2085 122.4 10.2085 123.6 10.2085C123.7 10.2085 123.9 10.2085 123.8 10.0085C123.4 8.30846 122.5 7.00846 120.8 6.30846C119.3 5.70846 117.7 5.70846 116.1 6.00846C114.3 6.30846 113 7.20846 112.2 8.80846C111.5 10.1085 111.4 11.4085 111.5 12.8085C111.4 14.3085 111.7 15.7085 112.4 17.1085C113.1 18.3085 114.2 19.2085 115.5 19.6085C116.6 19.9085 117.8 20.0085 119.1 19.8085C121.8 19.4085 123.1 17.9085 123.8 15.8085C124 15.5085 123.9 15.5085 123.6 15.5085Z" fill="#D3EAE9"/>
<path id="Vector_9" d="M3.59961 7.80847C3.59961 6.40847 3.19961 5.80847 1.59961 5.80847C1.29961 5.80847 0.899609 5.80847 0.599609 5.80847C0.199609 5.80847 0.0996094 5.90847 0.0996094 6.30847C0.0996094 8.50847 0.0996094 10.6085 0.0996094 12.8085C0.0996094 15.0085 0.0996094 17.2085 0.0996094 19.4085C0.0996094 19.7085 0.199609 19.9085 0.499609 19.9085C1.39961 19.9085 2.29961 19.9085 3.19961 19.9085C3.59961 19.9085 3.69961 19.8085 3.69961 19.5085C3.69961 18.3085 3.69961 17.2085 3.69961 16.0085C3.59961 13.3085 3.59961 10.6085 3.59961 7.80847Z" fill="#D3EAE9"/>
<path id="Vector_10" d="M94.3002 17.5084C94.3002 14.2084 94.3002 10.9084 94.3002 7.70844C94.3002 6.70844 94.0002 6.40844 93.1002 6.00844C92.5002 5.70844 91.9002 5.90844 91.3002 5.80844C90.8002 5.70844 90.7002 5.90844 90.7002 6.30844C90.7002 8.50844 90.7002 10.6084 90.7002 12.8084C90.7002 15.0084 90.7002 17.1084 90.7002 19.3084C90.7002 19.7084 90.8002 19.8084 91.2002 19.8084C92.0002 19.8084 92.9002 19.8084 93.7002 19.8084C94.1002 19.8084 94.2002 19.7084 94.2002 19.3084C94.3002 18.8084 94.3002 18.1084 94.3002 17.5084Z" fill="#D3EAE9"/>
<path id="Vector_11" d="M92.4002 3.30838C93.5002 3.50838 94.2002 2.60838 94.2002 1.60838C94.2002 0.608376 93.5002 0.108376 92.4002 0.00837592C91.5002 -0.0916241 90.7002 0.808376 90.7002 1.60838C90.8002 2.60838 91.4002 3.30838 92.4002 3.30838Z" fill="#D3EAE9"/>
<path id="Vector_12" d="M1.8 3.30848C2.7 3.30848 3.5 2.60848 3.5 1.60848C3.5 0.708476 2.8 -0.0915242 1.7 0.00847585C0.700001 0.00847585 0 0.708476 0 1.60848C0 2.60848 0.799999 3.20848 1.8 3.30848Z" fill="#D3EAE9"/>
</g>
</g>
</g>
</g>
</g>
</g>
<defs>
<clipPath id="clip0_0_1">
<rect width="1280" height="9282" fill="white" transform="translate(-398 -984)"/>
</clipPath>
</defs>
</svg>
