<svg width="30" height="30" viewBox="0 0 30 30" fill="none" xmlns="http://www.w3.org/2000/svg">
<g id="Vector">
<path d="M29.998 15.5862C29.998 16.368 30.0038 17.1486 29.9956 17.9303C29.9886 18.6499 29.9862 19.3718 29.944 20.0901C29.8701 21.372 29.856 22.6596 29.4865 23.9086C29.097 25.2221 28.5058 26.4076 27.5438 27.4112C26.5185 28.4806 25.2633 29.1403 23.8673 29.5112C23.0332 29.733 22.1522 29.7894 21.2876 29.8809C20.7304 29.9396 20.165 29.9396 19.6042 29.9443C16.6902 29.9678 13.7751 29.9889 10.861 29.9995C10.1431 30.0018 9.42165 29.9983 8.70722 29.9396C7.21503 29.8164 5.7416 29.5734 4.40192 28.8562C2.81001 28.004 1.62634 26.7598 0.915436 25.0824C0.579927 24.2912 0.345306 23.4754 0.249111 22.6232C0.178724 21.9941 0.0883949 21.3637 0.0743176 20.7322C0.0356051 18.9692 0.023874 17.2049 0.0144891 15.4407C0.00393112 13.5262 -0.0136655 11.6117 0.0180084 9.69719C0.0309126 8.92248 0.157608 8.14893 0.243245 7.37539C0.366422 6.25674 0.693719 5.19209 1.24508 4.21548C2.15189 2.60735 3.47164 1.44528 5.19376 0.770332C6.06304 0.429926 6.9722 0.226857 7.90834 0.16934C8.27435 0.147037 8.64036 0.123562 9.00637 0.111824C9.78296 0.0871741 10.5584 0.062524 11.335 0.0531334C13.2249 0.0296572 15.1136 0.00617944 17.0034 0.000310364C17.976 -0.00321108 18.9485 0.0237881 19.9198 0.0531334C21.5962 0.103607 23.2678 0.186948 24.8562 0.812592C26.0282 1.2739 27.0476 1.94297 27.8688 2.91724C28.8413 4.07227 29.3821 5.4069 29.6625 6.87417C29.822 7.7111 29.8924 8.54803 29.8947 9.39787C29.8971 10.439 29.937 11.479 29.9475 12.5202C29.9569 13.5414 29.9499 14.5638 29.9499 15.585C29.9663 15.585 29.9827 15.585 29.9991 15.585L29.998 15.5862ZM8.93832 2.66839C8.16173 2.81042 7.36636 2.91607 6.59094 3.10623C4.98026 3.50063 3.88809 4.50776 3.29215 6.05485C2.80297 7.32609 2.68448 8.66072 2.65046 10.0012C2.61762 11.2994 2.65046 12.5989 2.6575 13.8971C2.67041 16.2858 2.67275 18.6745 2.71147 21.0621C2.72085 21.6396 2.82526 22.2218 2.94374 22.7899C3.15138 23.7865 3.57135 24.6938 4.2717 25.4439C5.09405 26.3255 6.13812 26.8431 7.31357 27.0004C8.54299 27.1647 9.78648 27.2269 11.0265 27.3009C11.5989 27.3349 12.1761 27.2868 12.7509 27.2833C15.0784 27.2704 17.407 27.268 19.7344 27.2445C20.3797 27.2375 21.0237 27.1741 21.6677 27.1319C22.713 27.0638 23.7148 26.8278 24.6169 26.2773C25.6317 25.6564 26.3426 24.7866 26.7297 23.6492C27.1098 22.5305 27.1708 21.3649 27.2459 20.2052C27.3045 19.2931 27.3033 18.3752 27.301 17.4608C27.2951 15.5287 27.274 13.5978 27.2517 11.6657C27.2435 10.9274 27.2365 10.1867 27.1884 9.45069C27.1368 8.65837 27.0793 7.86135 26.9491 7.07959C26.8048 6.21448 26.4517 5.41512 25.878 4.74017C25.1284 3.85629 24.1313 3.38677 23.0321 3.09801C21.8718 2.79282 20.6788 2.73882 19.4928 2.7036C17.7859 2.65196 16.0767 2.67309 14.3686 2.66839C12.5667 2.6637 10.7649 2.66839 8.93832 2.66839Z" fill="#A8A8A8"/>
<path d="M14.9013 22.6784C10.7204 22.7065 7.63039 19.2579 7.3289 15.7364C7.14355 13.5719 7.74535 11.6516 9.14604 10.0071C10.5432 8.36488 12.3322 7.42466 14.5013 7.32137C19.4236 7.08543 22.5054 10.8768 22.6884 14.5392C22.9277 19.333 19.0295 22.8028 14.9025 22.6784H14.9013ZM14.8802 19.9856C17.7543 20.0103 19.8542 17.8634 19.9785 15.2974C20.1299 12.1669 17.7848 10.1831 15.3072 10.0176C12.2442 9.81337 10.0798 12.3523 10.0059 14.8432C9.92264 17.6462 12.2982 20.0115 14.8814 19.9856H14.8802Z" fill="#A8A8A8"/>
<path d="M22.9501 5.21084C24.0657 5.17328 24.7496 6.03485 24.7918 6.86357C24.8505 8.00804 23.9965 8.75928 22.9993 8.79449C22.0714 8.82736 21.1986 7.94465 21.201 6.99621C21.2033 6.0595 22.0702 5.13219 22.9501 5.21084Z" fill="#A8A8A8"/>
</g>
</svg>
