<svg width="30" height="30" viewBox="0 0 30 30" fill="none" xmlns="http://www.w3.org/2000/svg">
<path id="Vector" d="M0.0068983 15.001C0.0068983 11.2421 -0.00365473 7.48443 0.0151077 3.72555C0.0186257 2.94562 0.363384 2.25601 0.819547 1.62738C1.41408 0.808749 2.23846 0.340795 3.193 0.0804291C3.42049 0.0182698 3.66793 0.00771438 3.90715 0.00771438C11.2069 0.00302311 18.5079 -0.00870507 25.8076 0.0112328C27.6428 0.0159241 28.982 0.899056 29.6962 2.60433C29.8932 3.07463 29.9823 3.62469 29.9835 4.13838C30.0011 11.3817 30.0081 18.625 29.987 25.8684C29.9811 27.7894 28.8671 29.2519 26.9967 29.8536C26.693 29.9509 26.3576 29.9908 26.0363 29.992C18.5993 30.0002 11.1624 30.0049 3.72539 29.992C2.94909 29.9908 2.2584 29.6472 1.63454 29.1898C0.71401 28.5154 0.234391 27.5736 0.0115863 26.4817C-0.0130394 26.3598 0.0092459 26.2284 0.0092459 26.1017C0.0092459 22.4015 0.0092459 18.7024 0.0092459 15.0022H0.0068983V15.001ZM16.0113 13.3215C15.9867 13.3098 15.962 13.2981 15.9386 13.2852C15.9386 13.0166 15.9386 12.7469 15.9386 12.4783C15.9386 12.035 15.7357 11.825 15.2936 11.8239C14.4352 11.8215 13.5757 11.8215 12.7173 11.8239C12.2084 11.8239 12.0149 12.0174 12.0149 12.5264C12.0149 16.2548 12.0184 19.9843 12.009 23.7127C12.009 24.1009 12.294 24.3894 12.6681 24.3801C13.4971 24.3601 14.3274 24.3742 15.1564 24.3742C15.7756 24.3742 15.9609 24.1877 15.9609 23.5579C15.9609 21.7916 15.955 20.0242 15.9656 18.2579C15.9679 17.8428 15.9878 17.4205 16.0699 17.0159C16.2798 15.9862 16.8978 14.8744 18.4715 15.062C18.9887 15.1242 19.4366 15.3153 19.7497 15.7786C20.1707 16.4025 20.2434 17.1109 20.2528 17.8193C20.2762 19.7416 20.2598 21.665 20.2598 23.5884C20.2598 24.2182 20.4134 24.3683 21.0537 24.3683C21.8828 24.3683 22.713 24.3683 23.5421 24.3683C24.1014 24.3683 24.316 24.156 24.3113 23.5954C24.2949 21.6568 24.2773 19.7181 24.2539 17.7794C24.248 17.2564 24.2187 16.7333 24.1964 16.2102C24.1648 15.4807 24.0076 14.777 23.7356 14.1026C23.338 13.1175 22.6966 12.3528 21.6693 11.9869C21.307 11.8579 20.9212 11.757 20.5401 11.723C19.9233 11.669 19.2877 11.5963 18.6826 11.6843C17.585 11.8438 16.6293 12.3223 16.0113 13.3215ZM6.27239 18.0668C6.27239 19.9316 6.27239 21.7963 6.27239 23.6611C6.27239 24.1455 6.49988 24.373 6.97481 24.3742C7.80505 24.3742 8.63412 24.3754 9.46436 24.3742C9.97446 24.3742 10.2231 24.1267 10.2242 23.6083C10.2266 19.9269 10.2266 16.2466 10.2242 12.5651C10.2242 12.0397 10.0038 11.8215 9.48195 11.8192C8.67164 11.8156 7.86134 11.8344 7.05103 11.8121C6.56556 11.7992 6.26067 12.0127 6.26653 12.5897C6.28529 14.4158 6.27356 16.2419 6.27356 18.0668H6.27239ZM8.16388 10.7238C9.64612 10.7789 10.7508 9.58729 10.7812 8.28898C10.8188 6.6787 9.65667 5.64428 8.17913 5.63841C6.78132 5.63255 5.78457 6.74321 5.68724 8.02393C5.57114 9.5568 6.94667 10.7953 8.16388 10.7238Z" fill="#A8A8A8"/>
</svg>
