<svg width="91" height="32" viewBox="0 0 91 32" fill="none" xmlns="http://www.w3.org/2000/svg">
<rect width="91" height="32" fill="#E5E5E5"/>
<g id="Dev Place (Devloper)">
<rect id="Rectangle 2476" x="-9107" y="-3343" width="19213" height="12891" rx="140" fill="white" stroke="black" stroke-width="20"/>
<g id="Production - V.1" clip-path="url(#clip0_0_1)">
<rect width="1280" height="9282" transform="translate(-759 -978)" fill="white"/>
<g id="FULL CONTAINER">
<rect id="MAIN BG" x="-759" y="-979" width="1280" height="2061" fill="#042825"/>
<g id="COMPANY CLIENT">
<g id="COMPANY LOGO">
<g id="Group 23127">
<g id="Group">
<path id="Vector" d="M10.6 17.4L13.6 15.7L21.1 11.6L0 0V11.5L6.1 14.9L9.1 13.2L3 9.8V5L14.9 11.6L0 19.8V23.3V31.4L21.1 19.8L15.3 16.7L12.3 18.3L14.9 19.8L3 26.4V21.6L10.6 17.4Z" fill="#D3EAE9"/>
<path id="Vector_2" d="M33.1998 13.3L28.9998 6.40002H24.7998V22.6H28.9998V13.9L32.9998 20.4H33.3998L37.3998 13.9V22.6H41.5998V6.40002H37.3998L33.1998 13.3Z" fill="#D3EAE9"/>
<path id="Vector_3" d="M47.9 11.1H44V22.6H47.9V11.1Z" fill="#D3EAE9"/>
<path id="Vector_4" d="M46.0002 5.69995C44.8002 5.69995 43.7002 6.69995 43.7002 7.89995C43.7002 9.09995 44.7002 10.1 46.0002 10.1C47.2002 10.1 48.3002 9.09995 48.3002 7.89995C48.3002 6.69995 47.2002 5.69995 46.0002 5.69995Z" fill="#D3EAE9"/>
<path id="Vector_5" d="M57.2996 10.7C55.9996 10.6 54.7996 11.2 53.9996 12.2V11H50.0996V22.5H53.9996V16.4C53.9996 15 54.6996 14.3 55.8996 14.3C55.9996 14.3 56.0996 14.3 56.1996 14.3C57.0996 14.4 57.7996 15.2 57.5996 16.1V22.5H61.4996V15.7C61.6996 12.4 59.7996 10.7 57.2996 10.7Z" fill="#D3EAE9"/>
<path id="Vector_6" d="M68.6 7.80005L64.7 9.00005V11.1H63V14.7H64.8V18.1C64.8 21.7 66.4 23.1 71.1 22.5V19C69.5 19.1 68.7 19 68.7 17.9V14.7H71.1V11H68.7V7.80005H68.6Z" fill="#D3EAE9"/>
<path id="Vector_7" d="M74.8 5.69995C73.6 5.69995 72.5 6.69995 72.5 7.89995C72.5 9.09995 73.5 10.1 74.8 10.1C76.1 10.1 77.1 9.09995 77.1 7.89995C77.1 6.69995 76.1 5.69995 74.8 5.69995Z" fill="#D3EAE9"/>
<path id="Vector_8" d="M76.8004 11.1H72.9004V22.6H76.8004V11.1Z" fill="#D3EAE9"/>
<path id="Vector_9" d="M79.7002 11.1001H78.2002V14.7001H79.7002V22.6001H83.6002V14.7001H85.6002V11.0001H83.6002C83.6002 9.9001 84.4002 9.5001 85.6002 9.6001V6.0001C81.7002 5.9001 79.7002 7.8001 79.7002 11.1001Z" fill="#D3EAE9"/>
<path id="Vector_10" d="M90.6998 11.1H86.7998V22.6H90.6998V11.1Z" fill="#D3EAE9"/>
<path id="Vector_11" d="M88.7004 10.1C89.9706 10.1 91.0004 9.11498 91.0004 7.89995C91.0004 6.68492 89.9706 5.69995 88.7004 5.69995C87.4301 5.69995 86.4004 6.68492 86.4004 7.89995C86.4004 9.11498 87.4301 10.1 88.7004 10.1Z" fill="#D3EAE9"/>
</g>
</g>
</g>
</g>
</g>
</g>
</g>
<defs>
<clipPath id="clip0_0_1">
<rect width="1280" height="9282" fill="white" transform="translate(-759 -978)"/>
</clipPath>
</defs>
</svg>
