<svg width="190" height="29" viewBox="0 0 190 29" fill="none" xmlns="http://www.w3.org/2000/svg">
<path d="M14.7004 14.5001C13.6004 13.5001 12.6004 12.4001 11.5004 11.4001C11.4004 11.3001 11.2004 11.1001 11.0004 11.1001C10.8004 11.0001 10.6004 11.0001 10.4004 11.0001C10.2004 11.0001 10.0004 11.0001 9.80039 11.1001C9.60039 11.2001 9.40039 11.3001 9.30039 11.4001C9.20039 11.5001 9.00039 11.7001 9.00039 11.9001C9.00039 12.1001 8.90039 12.3001 8.90039 12.5001C8.90039 12.7001 8.90039 12.9001 9.00039 13.1001C9.10039 13.3001 9.20039 13.5001 9.30039 13.6001C10.7004 15.0001 12.2004 16.5001 13.6004 17.9001C13.7004 18.1001 13.9004 18.2001 14.1004 18.2001C14.2004 18.3001 14.4004 18.3001 14.5004 18.3001H14.6004C14.6004 18.3001 14.6004 18.3001 14.7004 18.3001C14.9004 18.3001 15.0004 18.3001 15.1004 18.2001C15.3004 18.1001 15.5004 18.0001 15.6004 17.8001C17.1004 16.2001 18.7004 14.7001 20.2004 13.2001C21.1004 12.3001 22.0004 11.4001 22.9004 10.5001C23.6004 9.8001 24.3004 9.1001 25.0004 8.4001C25.0004 8.4001 25.1004 8.4001 25.1004 8.3001V8.2001C25.0004 8.1001 25.1004 8.2001 25.2004 8.1001C25.5004 7.8001 25.8004 7.5001 26.2004 7.2001C26.3004 7.1001 26.5004 6.9001 26.5004 6.7001C26.5004 6.5001 26.6004 6.3001 26.6004 6.1001C26.6004 5.9001 26.6004 5.7001 26.5004 5.5001C26.4004 5.3001 26.3004 5.1001 26.2004 5.0001C26.1004 4.9001 25.9004 4.7001 25.7004 4.7001C25.5004 4.6001 25.3004 4.6001 25.1004 4.6001C24.9004 4.6001 24.7004 4.6001 24.5004 4.7001C24.3004 4.8001 24.1004 4.9001 24.0004 5.0001C22.5004 6.5001 20.9004 8.1001 19.4004 9.6001C17.9004 11.3001 16.3004 12.9001 14.7004 14.5001Z" fill="url(#paint0_linear_330_347)"/>
<path d="M26.4 9.2C26.2 9.2 26.1 9.3 26 9.4C25.5 10 24.9 10.5 24.3 11.1C24.3 11.1 24.2 11.2 24.2 11.3C24.6 11.7 24.9 12.1 25.3 12.4C25.6 12.6 25.8 12.9 25.9 13.3C26 13.6 26.1 14 26.1 14.3C26.1 14.7 26 15 25.9 15.3C25.7 15.6 25.5 15.9 25.3 16.1C22.4 19 19.5 21.9 16.5 24.9C16.3 25.2 16 25.4 15.6 25.5C15.3 25.7 14.9 25.7 14.6 25.8C14 25.7 13.5 25.5 13.1 25.1C10.1 22.1 7.1 19.1 4.1 16.2C3.9 16 3.7 15.8 3.6 15.5C3.4 15 3.3 14.5 3.4 14C3.5 13.5 3.7 13 4.1 12.7C6.6 10.2 9.1 7.8 11.5 5.3C11.8 5 12.2 4.7 12.5 4.3C12.8 3.9 13.1 3.6 13.5 3.4C13.9 3.2 14.3 3.1 14.7 3C15.1 3 15.5 3.1 15.8 3.3C16.2 3.5 16.5 3.7 16.7 4.1C17.3 4.7 17.9 5.3 18.5 6C18.6 6.1 18.7 6.2 18.8 6C19.4 5.3 20.1 4.7 20.7 4.1C20.8 4 20.8 4 20.7 3.9C19.8 2.9 18.8 2 17.8 1.1C16.9 0.4 15.8 0 14.7 0H14.6C14.6 0 14.6 0 14.5 0C13.8 0 13.2 0.1 12.5 0.4C11.8 0.7 11.2 1.1 10.7 1.6C7.7 4.6 4.7 7.6 1.6 10.6C1.1 11.1 0.7 11.7 0.4 12.4C0.1 13.1 0 13.8 0 14.5C0 15.2 0.1 16 0.4 16.6C0.7 17.3 1.1 17.9 1.6 18.4C2.7 19.5 3.8 20.5 4.8 21.6C6.8 23.6 8.8 25.6 10.8 27.5C11.3 28 11.9 28.4 12.5 28.6C13.1 28.8 13.6 28.9 14.2 28.9C14.3 28.9 14.3 28.9 14.4 28.9H14.5C15.4 28.9 16.2 28.6 17 28.2C17.7 27.8 18.3 27.2 18.8 26.6C21.6 23.8 24.4 21 27.2 18.2C28 17.4 28.6 16.4 28.8 15.3C29 14.2 28.9 13.1 28.5 12C28.4 10.9 27.4 10 26.4 9.2Z" fill="url(#paint1_linear_330_347)"/>
<path d="M167.899 13.9999C167.399 13.3999 166.699 12.9999 165.999 12.6999C165.299 12.3999 164.499 12.2999 163.799 12.2999C160.399 12.2999 157.999 14.6999 157.999 18.3999C157.899 19.1999 158.099 19.9999 158.299 20.7999C158.599 21.5999 158.999 22.1999 159.499 22.7999C159.999 23.3999 160.699 23.7999 161.399 24.0999C162.099 24.3999 162.899 24.4999 163.699 24.4999C164.899 24.5999 166.099 24.1999 166.999 23.4999C167.899 22.7999 168.699 21.7999 168.999 20.5999H165.899C165.699 21.0999 165.399 21.3999 164.999 21.6999C164.599 21.9999 164.099 22.0999 163.599 21.9999C163.199 21.9999 162.899 21.8999 162.599 21.7999C162.299 21.6999 161.999 21.4999 161.699 21.1999C161.399 20.8999 161.199 20.5999 161.099 20.2999C160.999 19.9999 160.899 19.5999 160.899 19.1999H169.299C169.399 18.7999 169.399 18.3999 169.399 17.9999C169.399 17.1999 169.299 16.3999 169.099 15.6999C168.799 15.1999 168.399 14.4999 167.899 13.9999ZM160.999 17.2999C160.999 16.5999 161.399 15.8999 161.899 15.4999C162.399 14.9999 163.099 14.7999 163.699 14.7999C163.999 14.7999 164.399 14.7999 164.699 14.8999C164.999 14.9999 165.299 15.1999 165.599 15.3999C165.899 15.5999 166.099 15.8999 166.199 16.2999C166.299 16.5999 166.399 16.9999 166.399 17.2999H160.999Z" fill="url(#paint2_linear_330_347)"/>
<path d="M68.6992 19.1C68.6992 21 67.6992 22 66.0992 22C64.5992 22 63.5992 21 63.5992 19.1V12.6H60.6992V19.6C60.6992 22.9 62.5992 24.7 65.2992 24.7C65.9992 24.7 66.5992 24.6 67.1992 24.3C67.7992 24 68.2992 23.6 68.6992 23.1V24.6H71.5992V12.5H68.6992V19.1Z" fill="url(#paint3_linear_330_347)"/>
<path d="M56.9992 13.9999C56.3992 13.3999 55.7992 12.9999 54.9992 12.6999C54.1992 12.3999 53.4992 12.2999 52.6992 12.2999C51.8992 12.2999 51.0992 12.3999 50.3992 12.6999C49.6992 12.9999 48.9992 13.3999 48.3992 13.9999C47.7992 14.5999 47.3992 15.2999 47.0992 15.9999C46.7992 16.7999 46.6992 17.5999 46.6992 18.3999C46.6992 19.1999 46.7992 19.9999 47.0992 20.7999C47.3992 21.5999 47.7992 22.1999 48.2992 22.7999C48.7992 23.3999 49.4992 23.7999 50.1992 24.0999C50.8992 24.3999 51.6992 24.4999 52.4992 24.4999C53.2992 24.4999 54.0992 24.3999 54.7992 24.0999C55.4992 23.7999 56.1992 23.3999 56.7992 22.7999C57.3992 22.1999 57.7992 21.4999 58.0992 20.7999C58.3992 19.9999 58.4992 19.1999 58.4992 18.3999C58.4992 17.5999 58.3992 16.7999 58.0992 15.9999C57.9992 15.2999 57.5992 14.5999 56.9992 13.9999ZM52.6992 21.9999C51.0992 21.9999 49.7992 20.7999 49.7992 18.4999C49.7992 16.0999 51.1992 14.9999 52.6992 14.9999C54.1992 14.9999 55.6992 16.0999 55.6992 18.4999C55.6992 20.7999 54.1992 21.9999 52.6992 21.9999Z" fill="url(#paint4_linear_330_347)"/>
<path d="M37.6996 13.5C37.6996 12.3 38.4996 11.7 39.6996 11.7C40.1996 11.7 40.6996 11.8 41.0996 12.1C41.4996 12.4 41.6996 12.9 41.7996 13.4H44.9996C44.7996 10.7 42.7996 9.09998 39.7996 9.09998C36.7996 9.09998 34.6996 10.7 34.6996 13.4C34.6996 18.8 42.0996 16.9 42.0996 20.1C42.0996 21.2 41.2996 21.9 39.8996 21.9C39.5996 21.9 39.3996 21.9 39.0996 21.8C38.7996 21.7 38.5996 21.6 38.3996 21.4C38.1996 21.2 37.9996 21 37.8996 20.7C37.7996 20.4 37.6996 20.2 37.6996 19.9H34.5996C34.5996 22.7 36.9996 24.4 39.9996 24.4C43.2996 24.4 45.0996 22.3 45.0996 19.9C45.0996 14.8 37.6996 16.5 37.6996 13.5Z" fill="url(#paint5_linear_330_347)"/>
<path d="M87.7 14.8999C88.2 14.8999 88.7 14.9999 89.1 15.2999C89.5 15.5999 89.8 15.9999 90 16.4999H93.1C92.8 15.1999 92.2 14.0999 91.2 13.2999C90.2 12.4999 89 12.1999 87.7 12.2999C84.4 12.2999 82 14.6999 82 18.3999C82 22.0999 84.4 24.4999 87.7 24.4999C88.9 24.5999 90.2 24.1999 91.1 23.3999C92.1 22.5999 92.8 21.4999 93.1 20.2999H90C89.9 20.7999 89.6 21.1999 89.1 21.4999C88.7 21.7999 88.2 21.8999 87.7 21.8999C86.1 21.8999 85 20.6999 85 18.2999C85 16.0999 86.1 14.8999 87.7 14.8999Z" fill="url(#paint6_linear_330_347)"/>
<path d="M77.4 14.4V12.6H74.5V24.5H77.4V18.6C77.4 16.3 78.4 15.6 80.2 15.6H81V12.4C80.3 12.4 79.6 12.6 79 12.9C78.2 13.2 77.7 13.7 77.4 14.4Z" fill="url(#paint7_linear_330_347)"/>
<path d="M188.6 21.9C187.7 21.9 187.4 21.6 187.4 20.8V15.1H190V12.6H187.4V9.69995H184.5V12.6H183.1V15.1H184.5V20.8C184.5 23.5 186 24.5 188.2 24.5H190V22H188.6V21.9Z" fill="url(#paint8_linear_330_347)"/>
<path d="M176.5 14.8999C177 14.8999 177.5 14.9999 177.9 15.2999C178.3 15.5999 178.6 15.9999 178.8 16.4999H181.9C181.6 15.1999 181 14.0999 180 13.2999C179 12.4999 177.8 12.1999 176.5 12.2999C173.2 12.2999 170.8 14.6999 170.8 18.3999C170.8 22.0999 173.2 24.4999 176.5 24.4999C177.7 24.5999 179 24.1999 179.9 23.3999C180.9 22.5999 181.6 21.4999 181.9 20.2999H178.8C178.7 20.7999 178.4 21.1999 177.9 21.4999C177.5 21.7999 177 21.8999 176.5 21.8999C174.9 21.8999 173.8 20.6999 173.8 18.2999C173.8 15.8999 174.8 14.8999 176.5 14.8999Z" fill="url(#paint9_linear_330_347)"/>
<path d="M138.3 13.9999C137.7 13.3999 137.1 12.9999 136.3 12.6999C135.6 12.3999 134.8 12.2999 134 12.2999C133.2 12.2999 132.4 12.3999 131.7 12.6999C131 12.9999 130.3 13.3999 129.7 13.9999C129.1 14.5999 128.7 15.2999 128.4 15.9999C128.1 16.7999 128 17.5999 128 18.3999C128 19.1999 128.1 19.9999 128.4 20.7999C128.7 21.5999 129.1 22.1999 129.6 22.7999C130.1 23.3999 130.8 23.7999 131.5 24.0999C132.2 24.3999 133 24.4999 133.8 24.4999C134.6 24.4999 135.4 24.3999 136.1 24.0999C136.8 23.7999 137.5 23.3999 138.1 22.7999C138.7 22.1999 139.1 21.4999 139.4 20.7999C139.7 19.9999 139.8 19.1999 139.8 18.3999C139.8 17.5999 139.7 16.7999 139.4 15.9999C139.3 15.2999 138.8 14.5999 138.3 13.9999ZM134 21.9999C132.4 21.9999 131.1 20.7999 131.1 18.4999C131.1 16.0999 132.5 14.9999 134 14.9999C135.5 14.9999 137 16.0999 137 18.4999C137 20.7999 135.5 21.9999 134 21.9999Z" fill="url(#paint10_linear_330_347)"/>
<path d="M153.299 14.4V12.6H150.399V24.5H153.299V18.6C153.299 16.3 154.299 15.6 156.099 15.6H156.899V12.4C156.199 12.4 155.499 12.6 154.899 12.9C154.199 13.2 153.699 13.7 153.299 14.4Z" fill="url(#paint11_linear_330_347)"/>
<path d="M145 14.4V12.6H142.1V24.5H145V18.6C145 16.3 146 15.6 147.8 15.6H148.6V12.4C147.9 12.4 147.2 12.6 146.6 12.9C145.8 13.2 145.3 13.7 145 14.4Z" fill="url(#paint12_linear_330_347)"/>
<path d="M104.399 13.9999C103.899 13.3999 103.199 12.9999 102.499 12.6999C101.799 12.3999 100.999 12.2999 100.299 12.2999C96.8993 12.2999 94.4993 14.6999 94.4993 18.3999C94.3993 19.1999 94.5993 19.9999 94.7993 20.7999C95.0993 21.5999 95.4993 22.1999 95.9993 22.7999C96.4993 23.3999 97.1993 23.7999 97.8993 24.0999C98.5993 24.3999 99.3993 24.4999 100.199 24.4999C101.399 24.5999 102.599 24.1999 103.499 23.4999C104.499 22.7999 105.199 21.7999 105.499 20.5999H102.399C102.199 21.0999 101.899 21.3999 101.499 21.6999C101.099 21.9999 100.599 22.0999 100.099 21.9999C99.6993 21.9999 99.3993 21.8999 99.0993 21.7999C98.7993 21.6999 98.4993 21.4999 98.1993 21.1999C97.8993 20.8999 97.6993 20.5999 97.5993 20.2999C97.4993 19.9999 97.3993 19.5999 97.3993 19.1999H105.799C105.899 18.7999 105.899 18.3999 105.899 17.9999C105.899 17.1999 105.799 16.3999 105.599 15.6999C105.299 15.1999 104.899 14.4999 104.399 13.9999ZM97.4993 17.2999C97.5993 16.5999 97.8993 15.8999 98.3993 15.4999C98.8993 14.9999 99.5993 14.7999 100.199 14.7999C100.499 14.7999 100.899 14.7999 101.199 14.8999C101.499 14.9999 101.799 15.1999 102.099 15.3999C102.399 15.5999 102.599 15.8999 102.699 16.2999C102.799 16.5999 102.899 16.9999 102.899 17.2999H97.4993Z" fill="url(#paint13_linear_330_347)"/>
<path d="M119.599 11.8999C120.299 11.8999 120.999 11.9999 121.599 12.3999C122.199 12.7999 122.699 13.2999 122.999 13.9999H126.299C125.799 12.4999 124.899 11.2999 123.699 10.3999C122.499 9.49994 120.999 9.09994 119.499 9.19994C118.499 9.19994 117.599 9.39994 116.699 9.69994C115.799 10.0999 114.999 10.5999 114.299 11.3999C113.599 12.0999 113.099 12.9999 112.699 13.8999C112.299 14.7999 112.199 15.7999 112.199 16.8999C112.199 17.8999 112.299 18.8999 112.699 19.8999C113.099 20.7999 113.599 21.6999 114.299 22.3999C114.999 23.0999 115.799 23.6999 116.699 24.0999C117.599 24.4999 118.599 24.6999 119.499 24.5999C120.999 24.6999 122.499 24.1999 123.699 23.3999C124.899 22.4999 125.799 21.2999 126.299 19.7999H122.999C122.699 20.4999 122.199 20.9999 121.599 21.3999C120.999 21.7999 120.299 21.9999 119.499 21.8999C116.999 21.8999 115.199 19.9999 115.199 16.8999C115.299 13.7999 117.099 11.8999 119.599 11.8999Z" fill="url(#paint14_linear_330_347)"/>
<defs>
<linearGradient id="paint0_linear_330_347" x1="76.8831" y1="12.1848" x2="-4.57365" y2="12.1848" gradientUnits="userSpaceOnUse">
<stop stop-color="#D3EAE9"/>
<stop offset="0.871987" stop-color="#D3EAE9" stop-opacity="0"/>
</linearGradient>
<linearGradient id="paint1_linear_330_347" x1="111" y1="15.9998" x2="-22" y2="15.9998" gradientUnits="userSpaceOnUse">
<stop stop-color="#D3EAE9"/>
<stop offset="0.871987" stop-color="#D3EAE9" stop-opacity="0"/>
</linearGradient>
<linearGradient id="paint2_linear_330_347" x1="159.914" y1="16.5283" x2="155.208" y2="16.5283" gradientUnits="userSpaceOnUse">
<stop stop-color="#D3EAE9"/>
<stop offset="1" stop-color="#D3EAE9"/>
</linearGradient>
<linearGradient id="paint3_linear_330_347" x1="62.5509" y1="16.7231" x2="58.0619" y2="16.7231" gradientUnits="userSpaceOnUse">
<stop stop-color="#D3EAE9"/>
<stop offset="1" stop-color="#D3EAE9"/>
</linearGradient>
<linearGradient id="paint4_linear_330_347" x1="48.7038" y1="16.523" x2="43.8441" y2="16.523" gradientUnits="userSpaceOnUse">
<stop stop-color="#D3EAE9"/>
<stop offset="1" stop-color="#D3EAE9"/>
</linearGradient>
<linearGradient id="paint5_linear_330_347" x1="36.3834" y1="14.3961" x2="32.0591" y2="14.3961" gradientUnits="userSpaceOnUse">
<stop stop-color="#D3EAE9"/>
<stop offset="1" stop-color="#D3EAE9"/>
</linearGradient>
<linearGradient id="paint6_linear_330_347" x1="83.8857" y1="16.5161" x2="79.3143" y2="16.5161" gradientUnits="userSpaceOnUse">
<stop stop-color="#D3EAE9"/>
<stop offset="1" stop-color="#D3EAE9"/>
</linearGradient>
<linearGradient id="paint7_linear_330_347" x1="75.6042" y1="16.5885" x2="72.9273" y2="16.5885" gradientUnits="userSpaceOnUse">
<stop stop-color="#D3EAE9"/>
<stop offset="1" stop-color="#D3EAE9"/>
</linearGradient>
<linearGradient id="paint8_linear_330_347" x1="184.272" y1="14.823" x2="181.43" y2="14.823" gradientUnits="userSpaceOnUse">
<stop stop-color="#D3EAE9"/>
<stop offset="1" stop-color="#D3EAE9"/>
</linearGradient>
<linearGradient id="paint9_linear_330_347" x1="172.686" y1="16.5161" x2="168.114" y2="16.5161" gradientUnits="userSpaceOnUse">
<stop stop-color="#D3EAE9"/>
<stop offset="1" stop-color="#D3EAE9"/>
</linearGradient>
<linearGradient id="paint10_linear_330_347" x1="130.005" y1="16.523" x2="125.145" y2="16.523" gradientUnits="userSpaceOnUse">
<stop stop-color="#D3EAE9"/>
<stop offset="1" stop-color="#D3EAE9"/>
</linearGradient>
<linearGradient id="paint11_linear_330_347" x1="151.504" y1="16.5885" x2="148.827" y2="16.5885" gradientUnits="userSpaceOnUse">
<stop stop-color="#D3EAE9"/>
<stop offset="1" stop-color="#D3EAE9"/>
</linearGradient>
<linearGradient id="paint12_linear_330_347" x1="143.204" y1="16.5885" x2="140.527" y2="16.5885" gradientUnits="userSpaceOnUse">
<stop stop-color="#D3EAE9"/>
<stop offset="1" stop-color="#D3EAE9"/>
</linearGradient>
<linearGradient id="paint13_linear_330_347" x1="96.4138" y1="16.5283" x2="91.7079" y2="16.5283" gradientUnits="userSpaceOnUse">
<stop stop-color="#D3EAE9"/>
<stop offset="1" stop-color="#D3EAE9"/>
</linearGradient>
<linearGradient id="paint14_linear_330_347" x1="114.595" y1="14.5297" x2="108.788" y2="14.5297" gradientUnits="userSpaceOnUse">
<stop stop-color="#D3EAE9"/>
<stop offset="1" stop-color="#D3EAE9"/>
</linearGradient>
</defs>
</svg>
