<svg width="19" height="16" viewBox="0 0 19 16" fill="none" xmlns="http://www.w3.org/2000/svg">
<path d="M14.9301 9.24437L14.6628 9.24437C10.1938 9.24437 5.72401 9.24437 1.25497 9.24437C0.618657 9.24437 0.149403 8.86813 0.0239226 8.26525C-0.12012 7.57322 0.40482 6.87363 1.09979 6.83359C1.1926 6.8283 1.28541 6.83057 1.37822 6.83057C5.81014 6.83057 10.2428 6.83057 14.6747 6.83057C14.7423 6.83057 14.8091 6.83057 14.8937 6.83057C14.8603 6.73689 14.792 6.69156 14.7386 6.63792C13.2417 5.12845 11.7411 3.622 10.2458 2.11026C9.5753 1.43258 9.82107 0.337123 10.7039 0.0628798C11.1679 -0.0814197 11.5867 0.0235933 11.9349 0.368098C12.347 0.775307 12.7502 1.19234 13.1571 1.60559C14.9635 3.44068 16.7708 5.27577 18.5772 7.11086C19.1378 7.6805 19.1415 8.39293 18.5847 8.95804C16.3973 11.1784 14.2099 13.3996 12.0218 15.6207C11.6869 15.9607 11.2867 16.0816 10.8338 15.9448C10.3824 15.8088 10.098 15.4915 10.0045 15.0201C9.91907 14.5872 10.0512 14.2163 10.3579 13.905C11.8273 12.4114 13.2959 10.917 14.7638 9.42266C14.8106 9.37507 14.8551 9.3252 14.9301 9.24512L14.9301 9.24437Z" fill="black"/>
</svg>
