<svg width="89" height="30" viewBox="0 0 89 30" fill="none" xmlns="http://www.w3.org/2000/svg">
<path d="M34.0002 16.7L30.7002 6.5H27.2002L31.9002 20H36.0002L40.8002 6.5H37.3002L34.0002 16.7Z" fill="#D3EAE9"/>
<path d="M49.6 9.79998C48.8 9.39998 47.8 9.09998 46.9 9.09998C45.9 9.09998 45 9.29998 44.1 9.79998C43.3 10.2 42.6 10.9 42.2 11.7C41.7 12.6 41.5 13.6 41.5 14.6C41.5 15.6 41.7 16.6 42.2 17.5C42.6 18.3 43.3 19 44.1 19.4C45 19.9 45.9 20.1 46.9 20.1C47.7 20.1 48.5 19.9 49.2 19.6C49.9 19.3 50.5 18.8 50.9 18.3C51.4 17.7 51.7 17.1 51.9 16.4H48.4C48.3 16.7 48 17 47.7 17.2C47.4 17.4 47 17.5 46.7 17.4C46.2 17.4 45.7 17.2 45.3 16.9C44.9 16.5 44.7 15.9 44.7 15.4H52.1C52.1 15.1 52.2 14.8 52.2 14.4C52.2 13.4 52 12.4 51.5 11.6C51.1 10.9 50.4 10.2 49.6 9.79998ZM44.7 13.6C44.8 13.1 45 12.6 45.4 12.2C45.8 11.9 46.3 11.7 46.8 11.7C47.3 11.7 47.8 11.9 48.2 12.2C48.4 12.4 48.5 12.6 48.6 12.8C48.7 13 48.7 13.3 48.7 13.5H44.7V13.6Z" fill="#D3EAE9"/>
<path d="M69.1998 9.30007C69.1998 9.00007 69.1998 8.80007 69.2998 8.60007C69.3998 8.40007 69.4998 8.20007 69.5998 8.10007C69.9998 7.80007 70.4998 7.80007 70.8998 7.80007V5.00007C70.7998 5.00007 70.5998 5.00007 70.3998 5.00007C69.1998 4.90007 67.9998 5.30007 67.0998 6.00007C66.6998 6.40007 66.3998 6.90007 66.1998 7.40007C65.9998 7.90007 65.8998 8.50007 65.9998 9.00007V9.30007H64.7998V12.0001H65.9998V20.0001H69.2998V12.0001H71.0998V9.30007H69.1998Z" fill="#D3EAE9"/>
<path d="M61.3998 9.79998C60.5998 9.39998 59.5998 9.09998 58.6998 9.09998C57.6998 9.09998 56.7998 9.29998 55.8998 9.79998C55.0998 10.2 54.3998 10.9 53.9998 11.7C53.4998 12.6 53.2998 13.6 53.2998 14.6C53.2998 15.6 53.4998 16.6 53.9998 17.5C54.3998 18.3 55.0998 19 55.8998 19.4C56.7998 19.9 57.6998 20.1 58.6998 20.1C59.4998 20.1 60.2998 19.9 60.9998 19.6C61.6998 19.3 62.2998 18.8 62.6998 18.3C63.1998 17.7 63.4998 17.1 63.6998 16.4H60.1998C60.0998 16.7 59.7998 17 59.4998 17.2C59.1998 17.4 58.7998 17.5 58.4998 17.4C57.9998 17.4 57.4998 17.2 57.0998 16.9C56.6998 16.5 56.4998 15.9 56.4998 15.4H63.8998C63.8998 15.1 63.9998 14.8 63.9998 14.4C63.9998 13.4 63.7998 12.4 63.2998 11.6C62.7998 10.9 62.1998 10.2 61.3998 9.79998ZM56.4998 13.6C56.5998 13.1 56.7998 12.6 57.1998 12.2C57.5998 11.9 58.0998 11.7 58.5998 11.7C59.0998 11.7 59.5998 11.9 59.9998 12.2C60.1998 12.4 60.2998 12.6 60.3998 12.8C60.4998 13 60.4998 13.3 60.4998 13.5H56.4998V13.6Z" fill="#D3EAE9"/>
<path d="M85.5004 9.29993L83.0004 15.9999L80.6004 9.29993H76.9004L81.3004 19.6999L78.8004 25.0999H82.3004L89.0004 9.29993H85.5004Z" fill="#D3EAE9"/>
<path d="M75.8 5.79993H72.5V19.9999H75.8V5.79993Z" fill="#D3EAE9"/>
<path d="M23 12.8C22.7 12.6 22.4 12.4 22.1 12.2C22.1 12.2 22.1 12.2 22 12.2H21.9C21.5 12.4 21.2 12.7 20.8 12.9L18.5 14.4C17.7 14.9 16.8 15.4 16 16C15.1 16.6 14.2 17.1 13.2 17.7C12.5 18.2 11.8 18.6 11 19.1C10.6 19.4 10.2 19.6 9.8 19.9C8.8 20.5 7.9 21.1 6.9 21.7C6.3 22.1 5.7 22.5 5.1 22.8C4.7 23.1 4.3 23.3 3.9 23.6C3.8 23.7 3.8 23.6 3.8 23.5C3.8 23.5 3.8 23.5 3.8 23.4C3.8 22.1 3.8 20.7 3.8 19.4C3.8 17.9 3.8 16.5 3.8 15V14.9C3.8 14.9 3.8 14.9 3.9 14.9C3.9 14.9 4 14.9 4 15C4.3 15.1 4.6 15.3 4.9 15.5C5.5 15.9 6.1 16.3 6.7 16.6C6.9 16.7 7 16.8 7 16.8C7 16.8 8.7 17.9 9.5 18.4C9.6 18.5 9.7 18.5 9.7 18.4C9.8 18.3 9.9 18.3 10 18.2C10.6 17.8 10.7 17.8 11.1 17.5C12.6 16.6 12.5 16.6 13.2 16.2C13.3 16.2 13.4 16.1 13.4 16C13.4 16 13.3 16 13.3 15.9C13.2 15.9 13.1 15.8 13.1 15.8C12.5 15.4 11.1 14.5 10.5 14.2C9.2 13.5 9.3 13.4 7.9 12.6C8 12.6 8 12.6 7.9 12.6L6.8 11.9C6.6 11.7 6.3 11.6 6 11.4C5.2 10.9 4.9 10.7 4 10.1C3.8 10 3.8 9.9 3.8 9.8C3.8 8.4 3.8 7.1 3.8 5.7V5.6H3.9C4.1 5.7 4.4 5.9 4.6 6C5.2 6.4 5.7 6.7 6.3 7.1C6.9 7.5 7.5 7.9 8.1 8.2C8.6 8.5 9.2 8.9 9.7 9.2L12.1 10.7C12.7 11.1 13.3 11.4 13.8 11.8C14.3 12.1 14.9 12.5 15.4 12.8C15.9 13.1 16.4 13.4 16.8 13.7H16.9H17C17.5 13.4 18 13 18.6 12.7C19.2 12.3 19.7 12 20.3 11.7C20.5 11.6 20.6 11.5 20.8 11.4C20.2 11 19.6 10.7 19 10.3C18.2 9.8 17.5 9.3 16.7 8.9C15.8 8.3 14.9 7.8 13.9 7.2C13.3 6.8 12.7 6.5 12.1 6.1C11.3 5.6 10.4 5 9.6 4.5C9 4 8.2 3.6 7.5 3.1C6.7 2.6 5.9 2.1 5.1 1.6C4.5 1.3 4 0.9 3.4 0.6C3.2 0.5 3 0.3 2.8 0.2C2.5 0.0999998 2.2 0 1.9 0C1.6 0 1.3 0.0999997 1 0.3C0.7 0.5 0.400001 0.8 0.200001 1.1C0.100001 1.6 0 2 0 2.4C0 4.8 0 7.2 0 9.6C0 15.3 0 21 0 26.8C0 27.3 0.100002 27.8 0.400002 28.2C0.500002 28.4 0.7 28.6 1 28.8C1.2 29 1.5 29.1 1.7 29.1C1.9 29.2 2.2 29.2 2.4 29.1C2.6 29.1 2.9 29 3.1 28.9C3.8 28.5 4.4 28.1 5.1 27.7C6.2 27 7.3 26.3 8.3 25.7C9 25.3 9.6 24.9 10.3 24.4C11.1 23.9 11.8 23.4 12.6 23C13.4 22.5 14.1 22 14.9 21.6C15.7 21.1 16.5 20.6 17.2 20.1C17.9 19.7 18.5 19.3 19.2 18.9C19.8 18.5 20.3 18.2 20.9 17.8C21.5 17.4 22.1 17 22.8 16.6C23.1 16.4 23.3 16.2 23.5 15.9C23.7 15.6 23.8 15.3 23.8 15C23.9 14.6 23.8 14.2 23.7 13.8C23.6 13.4 23.3 13.1 23 12.8Z" fill="#D3EAE9"/>
</svg>
