<svg width="17" height="24" viewBox="0 0 17 24" fill="none" xmlns="http://www.w3.org/2000/svg">
<path d="M16.2 19.2392C16.1 18.8392 15.8 18.5392 15.5 18.3392C15.2 18.1392 14.9 18.1392 14.6 17.9392C13.6 17.5392 12.7 17.1392 11.7 16.8392C10.8 16.5392 9.9 16.1392 9 15.8392C8.9 15.8392 8.9 15.8392 8.8 15.7392C8.9 15.7392 8.9 15.6392 9 15.6392C11 14.9392 13.7 14.3392 15.7 13.6392C16.1 13.5392 16.2 13.3392 16.2 12.9392C16.2 12.5392 16.2 12.1392 16.2 11.7392C16.2 10.2392 16.2 8.63923 16.2 7.13923C16.2 6.13923 16 5.83923 14.8 5.13923C14.5 4.93923 13.5 4.43923 13.2 4.33923C11 3.43923 8.8 2.63923 6.7 1.73923C5.4 1.23923 4.1 0.73923 2.9 0.23923C2.5 0.0392303 2.10001 -0.0607695 1.60001 0.0392305C0.900006 0.0392305 0.300003 0.73923 0.300003 1.33923C0.300003 2.13923 0.300003 2.83923 0.300003 3.63923C0.300003 3.93923 0.400005 4.13923 0.700005 4.23923C0.900005 4.33923 1.1 4.43923 1.4 4.53923C2.8 5.13923 4.3 5.63923 5.7 6.23923C8 7.13923 10.3 8.03923 12.5 8.93923L13.6 9.43923C13.2 9.53923 12.9 9.73923 12.6 9.83923C12.3 9.93923 12.1 9.93923 11.8 9.83923C9.2 8.73923 6.6 7.73923 3.9 6.73923C2.8 6.23923 1.6 5.83923 0.5 5.33923C0.3 5.23923 0.300003 5.23923 0.300003 5.43923C0.300003 6.63923 0.300003 7.73923 0.300003 8.93923C0.300003 9.63923 0.600003 10.1392 1.3 10.4392C2.4 10.8392 3.5 11.2392 4.5 11.7392C4.9 11.9392 5.4 12.0392 5.8 12.2392C5.7 12.3392 5.70001 12.3392 5.60001 12.3392C4.80001 12.6392 4 13.0392 3.2 13.3392C2.2 13.7392 1.2 14.1392 0.200005 14.5392C0.100005 14.5392 0 14.6392 0 14.7392C0 14.9392 0 15.1392 0 15.3392C0 16.0392 0 16.7392 0 17.4392C0 17.9392 0.1 18.0392 0.5 18.1392C1.3 18.4392 2.1 18.7392 2.9 19.0392C4.4 19.5392 5.9 20.1392 7.4 20.6392C9 21.2392 10.6 21.8392 12.2 22.3392C13.4 22.7392 14.8 23.3392 16.1 23.7392C16.3 23.8392 16.3 23.8392 16.3 23.6392C16.3 22.3392 16.2 21.0392 16.2 19.7392C16.2 19.4392 16.2 19.3392 16.2 19.2392Z" fill="#D3EAE9"/>
</svg>
